<svg xmlns="http://www.w3.org/2000/svg" viewBox="0 0 780 217.2"><defs><style>.cls-1{fill:#fff;}.cls-2{fill:#009ada;}.cls-3{fill:#ff8815;}</style></defs><g id="Capa_2" data-name="Capa 2"><g id="Capa_1-2" data-name="Capa 1"><path class="cls-1" d="M617.74,23v-2.7a18.51,18.51,0,0,0-6.66-14.34,24.81,24.81,0,0,0-32.17,0,18.51,18.51,0,0,0-6.66,14.34V39.8l-2.38-1.14a82.8,82.8,0,0,0-36-7.78c-23.43,0-42.87,8.05-59.43,24.61s-24.61,36-24.61,59.43,8.05,42.86,24.61,59.42,36,24.61,59.43,24.61,42.86-8,59.42-24.61c13.93-13.93,21.81-29.9,24-48.56a19.09,19.09,0,0,0,.48-4.25v-1.22c.09-1.78.16-3.57.16-5.39V25.56A24.36,24.36,0,0,0,617.74,23ZM561,144.89a41,41,0,0,1-30,12.44h-.44a42.47,42.47,0,0,1-42.41-42.41A42.47,42.47,0,0,1,530.58,72.5H531a42.49,42.49,0,0,1,42.42,42.42A41,41,0,0,1,561,144.89Z"/><path class="cls-2" d="M299.7,40.41q22.65-22.63,55-22.65t54.94,22.72q22.71,22.71,22.71,54.94v77.65a25.89,25.89,0,1,1-51.77,0V95.42a25.88,25.88,0,1,0-51.76,0v77.65a25.89,25.89,0,1,1-51.77,0V95.42Q277.06,63.06,299.7,40.41Z"/><path class="cls-1" d="M260.23,173.07a24.09,24.09,0,0,1-8.14,18.31,29.38,29.38,0,0,1-39.37,0,24.09,24.09,0,0,1-8.14-18.31V43.65a24.07,24.07,0,0,1,8.14-18.31,29.35,29.35,0,0,1,39.37,0,24.07,24.07,0,0,1,8.14,18.31Z"/><path class="cls-2" d="M59.5,151.18l14.43-27.91L88.24,95.62,56.09,33.47A25.85,25.85,0,0,0,39.29,20a29.89,29.89,0,0,0-22.51,2.49,29.92,29.92,0,0,0-15,16.93A25.87,25.87,0,0,0,3,60.92L55.42,162.24a39.5,39.5,0,0,1,3.37-9.7Z"/><path class="cls-1" d="M155.32,89.65a40.44,40.44,0,0,1-29.26-12.81,40.85,40.85,0,0,1-9.83-16.6l-50,96.65A25.87,25.87,0,0,0,65,178.37,29.85,29.85,0,0,0,80,195.3a29.89,29.89,0,0,0,22.51,2.49,25.88,25.88,0,0,0,16.8-13.44l50-96.75a41.87,41.87,0,0,1-13.06,2.06Z"/><path class="cls-3" d="M155.56,78.11a29.12,29.12,0,0,1-21.16-9.27A29.05,29.05,0,0,1,126,47.32a29.08,29.08,0,0,1,9.27-21.17A30.23,30.23,0,0,1,178,27a29.11,29.11,0,0,1,8.39,21.53,29.08,29.08,0,0,1-9.27,21.16A29.09,29.09,0,0,1,155.56,78.11Z"/><path class="cls-3" d="M552.62,136.24a30.17,30.17,0,0,1-51.49-21.32,30.18,30.18,0,1,1,51.49,21.32Z"/><path class="cls-3" d="M773,23.36a26.65,26.65,0,0,0-33.89,0q-7,6.08-7,14.71v62.35a18.8,18.8,0,0,1-7,14.71,26.65,26.65,0,0,1-33.89,0q-7-6.07-7-14.71V38.07q0-8.64-7-14.71a26.65,26.65,0,0,0-33.89,0q-7,6.08-7,14.71v62.35q0,26,21,44.18a72.4,72.4,0,0,0,23.63,13.78c.55.19,1.11.36,1.66.54v34.45a22.16,22.16,0,0,0,7.5,16.86,27,27,0,0,0,36.23,0,22.15,22.15,0,0,0,7.49-16.86V158.88A72.3,72.3,0,0,0,759,144.54q21-18.24,21-44.12V38.07Q780,29.43,773,23.36Z"/></g></g></svg>