<?xml version="1.0" encoding="utf-8"?>
<!-- Generator: Adobe Illustrator 26.2.1, SVG Export Plug-In . SVG Version: 6.00 Build 0)  -->
<svg version="1.1" id="Capa_1" xmlns="http://www.w3.org/2000/svg" xmlns:xlink="http://www.w3.org/1999/xlink" x="0px" y="0px"
	 viewBox="0 0 1080 1080" style="enable-background:new 0 0 1080 1080;" xml:space="preserve">
<style type="text/css">
	.st0{enable-background:new    ;}
	.st1{fill:#450979;}
</style>
<g class="st0">
	<path class="st1" d="M968.7,286c0-2.2,0-4.3-0.1-6.5c-0.9-18.3-6.3-35.1-17.1-49.8c-19.1-25.9-45-38.6-77.3-38.5
		c-121.2,0.1-242.3,0-363.5,0.1c-5.3,0-8.9-1.5-12.7-5.2c-37.6-37.8-75.3-75.6-113.1-113.2c-18-17.9-39.8-25-64.9-20.2
		c-48.6,9.3-73.4,64.3-47.4,106.4c6.1,9.9,15.4,17.8,23.1,26.7c1.2,1.4,2.3,2.9,4,5.1c-2.7,0.1-4.1,0.3-5.6,0.3
		c-25.7,0-51.3-0.4-77,0.2c-10.2,0.3-20.8,1.4-30.4,4.7c-39.5,13.5-62.9,47.2-63,89c0,20.8,0,41.7,0,62.5c0,19.3-0.1,38.7,0.1,58
		c0.1,12.9,12.7,21.1,24.6,16.5c7.5-2.9,11.6-9.5,11.6-19.1c0-40-0.1-80,0.2-120c0-5.9,0.9-12.1,2.9-17.6
		c8.5-24.2,28.3-37.9,54.7-38c38.2-0.1,76.3-0.1,114.5,0.1c2.9,0,6.5,1.6,8.6,3.7c45.3,45,90.4,90.2,135.5,135.3
		c30.5,30.5,61.2,60.9,91.6,91.6c1.3,1.3,1.8,4.2,1.5,6.2c-2.6,18.5-0.4,36.6,5.4,54.2c8.8,26.8,26.5,47,48.5,63.9
		c33.1,25.4,71.1,36.2,112,38.9c25.5,1.7,51,0.4,76.4-2.1c7.9-0.8,14-4.1,17.1-11.8c3.2-7.8,0.9-14.5-4.7-20.1
		c-13.5-13.8-19.4-30.5-18.5-49.5c0.7-15.1,2.1-30.2,3.4-45.3c2.1-24.8,0.8-49.3-11.7-71.4c-25.7-45.2-65.4-65.9-117-63
		c-7.5,0.4-11.9-1.4-17-6.5c-39.4-39.8-79.1-79.3-118.7-118.9c-1.1-1.1-2.2-2.4-4.4-4.8c3.2-0.2,4.7-0.5,6.3-0.5
		c109.2,0,218.3-0.1,327.5,0.1c7.2,0,14.8,1,21.5,3.4c23.2,8.3,36.7,28.6,36.7,54c0,123.7,0,247.4,0,371c0,7.9,0,7.9-7.8,7.9
		c-252,0-504,0-756,0c-1.3,0-2.7-0.1-4,0c-3.6,0.4-4.6-1.3-4.6-4.7c0.1-11.5,0.1-23,0-34.5c0-17.7,0.2-35.3-0.1-53
		c-0.2-10.6-8.6-18.5-18.6-18.3c-9.9,0.3-17.5,8.3-17.6,18.7c0,54.8-0.3,109.7,0.2,164.5c0.2,25.5,10.8,47.1,29.5,64.5
		c18.7,17.2,41.1,24.5,66.3,24.5c76.2-0.1,152.3,0,228.5-0.1c4.6,0,6,1.3,6,5.9c-0.2,16-0.3,32,0,48c0.1,4.8-1.1,6.5-6.2,6.9
		c-46.3,3.7-82.4,41.9-84.4,88.1c-0.5,12.4,8.6,21.9,20.9,21.8c51.8-0.4,103.7-0.2,155.5-0.2c56.5,0,113,0,169.5,0
		c11.3,0,19.2-8,19.1-19.2c-0.2-18.8-5.6-36.1-16.5-51.5c-16.8-23.7-39.9-36.7-68.8-39.2c-3.6-0.3-5.3-1.2-5.2-5.3
		c0.2-16.7,0.2-33.3,0-50c-0.1-4.3,1.6-5.7,5.5-5.3c1.3,0.1,2.7,0,4,0c75,0,150-0.1,225,0c24.4,0,46.4-6.8,64.8-23.2
		c21.4-19.1,31.3-43.3,31.2-71.9C968.7,582.4,968.7,434.2,968.7,286z M768.5,463.9c1-1,2.1-1.8,4.1-3.5c0.3,3.3,0.9,5.6,0.8,7.8
		c-0.9,16.3-1.8,32.6-3,48.8c-1.3,18-1.9,35.9,3.1,53.5c1.3,4.6,3,9,4.6,14c-1.8,0.4-3,0.9-4.2,0.9c-32.9,1.3-65.2-1.2-96.1-13.7
		c-16.4-6.7-30.8-16.3-43.9-28.2c-2.6-2.4-2.8-4.3-1-7.2c13.5-22.1,32.9-35.1,58.8-37C721.7,497.1,747.6,486,768.5,463.9z
		 M667.3,397c31.6-8.8,59.9-1,83.8,21.7c2.4,2.3,2.3,4.2,0.7,6.9c-13.2,21.9-32.5,34.9-57.9,36.8c-33.7,2.6-61.6,15.5-83.1,41.7
		c-0.2,0.2-0.5,0.3-2.3,1.4c-1.2-6.5-2.9-12.2-3.3-18.1C601.8,445.2,626.4,408.4,667.3,397z M567.3,312.7c0.9-0.9,2-1.6,3.1-2.5
		c1.2,1,2.1,1.6,2.9,2.4c17.4,17.4,34.8,34.9,52.3,52.2c2.7,2.7,2.4,4.4-0.2,6.9c-14.4,14.3-28.8,28.6-43.1,43.1
		c-2.4,2.5-4,2.5-6.5,0c-17.3-17.5-34.7-34.9-52.2-52.3c-2.6-2.5-2.2-4.2,0.1-6.5C538.3,341.6,552.8,327.1,567.3,312.7z
		 M539.6,288.7c-13.8,13.8-27.7,27.5-41.3,41.4c-2.9,2.9-4.5,2.6-7.2-0.1c-60.4-60.5-120.9-120.9-181.3-181.4
		C289.3,128,297.6,96,325.2,88.6c2.7-0.7,5.6-0.8,8.4-1.2c10.5,0.2,19,4.5,26.2,11.8c22.1,22.2,44.3,44.3,66.5,66.5
		c37.8,37.8,75.6,75.7,113.5,113.5C544.5,283.8,544.5,283.8,539.6,288.7z M687.6,955.1c0.4,0.7,0.6,1.5,0.8,2.3
		c0.1,0.3-0.1,0.6-0.2,1.7c-94.7,0-189.4,0-285.3,0c1.9-3.8,3.2-7,5-9.9c11-17.2,26.6-27,47.2-27.1c60.8-0.2,121.6-0.3,182.4,0.1
		C660.8,922.4,677.3,934.4,687.6,955.1z M490.4,830.9c-0.1-4.2,1.4-5.4,5.4-5.4c33.6,0.1,67.3,0.1,100.9,0c4,0,5.2,1.4,5.1,5.2
		c-0.2,16.6-0.1,33.3,0,50c0,3.7-1.2,4.9-4.9,4.9c-17-0.1-34-0.1-50.9-0.1c-16.6,0-33.3-0.1-49.9,0.1c-4.5,0.1-5.7-1.4-5.6-5.7
		C490.6,863.6,490.6,847.2,490.4,830.9z M932.3,733.5c-0.4,30.9-24.1,55-55,55.9c-1.7,0-3.3,0-5,0c-217.5,0-435,0-652.5,0.1
		c-20.4,0-37.1-6.9-49.3-23.5c-6.8-9.2-10.4-19.7-10.4-31.2c0-10,0.1-20-0.1-30c-0.1-3.4,1-5,4.6-4.7c1.5,0.1,3,0,4.5,0
		c125.8,0,251.7,0,377.5,0c126.2,0,252.3,0,378.5,0c7.3,0,7.3,0,7.3,7.4C932.3,716.1,932.4,724.8,932.3,733.5z"/>
	<path class="st1" d="M141.5,506.6c9.9,0.1,18.3-8.1,18.4-18c0.1-9.8-8.3-18.2-18.1-18.2c-9.9,0-18.1,8.3-18,18.3
		C123.8,498.4,131.8,506.5,141.5,506.6z"/>
	<path class="st1" d="M546.5,726.7c-10.1-0.1-18.3,7.8-18.4,17.8c-0.1,9.8,8.2,18.2,18.2,18.2c9.7,0,17.9-8,18.1-17.7
		C564.5,735,556.6,726.8,546.5,726.7z"/>
</g>
</svg>
