<?xml version="1.0" encoding="utf-8"?>
<!-- Generator: Adobe Illustrator 26.2.1, SVG Export Plug-In . SVG Version: 6.00 Build 0)  -->
<svg version="1.1" id="Capa_1" xmlns="http://www.w3.org/2000/svg" xmlns:xlink="http://www.w3.org/1999/xlink" x="0px" y="0px"
	 viewBox="0 0 1080 1080" style="enable-background:new 0 0 1080 1080;" xml:space="preserve">
<style type="text/css">
	.st0{enable-background:new    ;}
	.st1{fill:#FFFFFF;}
</style>
<g class="st0">
	<path class="st1" d="M1022.73,538.2c-0.67-29.74-13.92-53.57-39.67-68.68c-28.09-16.48-58.48-28.08-89.78-37.08
		c-7.05-2.03-13.72,1.8-16.4,8.8c-2.44,6.37,0.48,13.61,7.07,16.72c3.14,1.48,6.56,2.37,9.88,3.42
		c25.31,7.97,49.65,18.27,73.14,30.58c1.72,0.9,3.13,2.38,4.68,3.59c-0.18,0.63-0.35,1.27-0.53,1.9c-5.75,0-11.58-0.61-17.24,0.13
		c-11.67,1.51-23.62,2.54-34.79,5.94c-17.77,5.42-24.01,21.01-16.88,38.26c3.61,8.74,9.71,15.51,17.19,21.02
		c20.45,15.06,43.69,20.56,68.75,19.61c6.94-0.26,6.94-0.24,6.95,6.53c0,0.5-0.07,1.01,0.01,1.5c0.71,4.64-1.27,5.96-5.86,5.9
		c-19.66-0.23-39.34-0.39-59,0.07c-6.36,0.15-10.21-1.94-14.18-6.79c-38.14-46.58-109.68-45.81-146.63,1.55
		c-3.06,3.92-6.11,5.16-10.85,5.16c-130.84-0.11-261.67-0.12-392.51,0.03c-5.34,0.01-8.71-1.51-12.13-5.74
		c-35.62-44.11-100.82-47.55-140.44-7.63c-7.09,13.15-18.79,13.84-32.09,13.5c-30.65-0.78-61.33-0.31-92-0.17
		c-4.06,0.02-5.65-1.05-5.49-5.32c0.29-7.99,0.27-16,0.01-24c-0.14-4.28,1.53-5.53,5.56-5.29c4.48,0.27,9,0.17,13.49-0.01
		c8.5-0.34,13.43-5.24,14.07-13.77c0.1-1.33,0.06-2.67,0.07-4c0.04-7.02,0.04-7.02,6.82-7.03c8.83-0.01,17.67,0.17,26.5-0.06
		c13.44-0.35,23.37-6.62,30.05-18.29c4.48-7.83,3.62-16.36,3.96-24.83c0.4-9.96-2.56-18.59-8.37-26.57
		c-7.94-10.91-15.57-22.04-23.31-33.09c-0.9-1.28-1.67-2.65-3.06-4.87c2.63-0.15,4.21-0.32,5.8-0.33c8.67-0.03,17.34-0.11,26,0.02
		c6.56,0.1,11.56-2.43,15.18-7.92c2.47-3.75,5-7.49,7.74-11.04c27.21-35.26,61.72-61.43,101.64-80.61
		c10.85-5.21,22.36-9.03,33.56-13.49c0.29,0.56,0.59,1.13,0.88,1.69c-2.06,1.44-4.06,2.98-6.18,4.32
		c-26,16.29-49.51,35.54-69.69,58.73c-6.49,7.46-9.56,16.01-7.26,25.88c3.35,14.35,13.3,22.49,28.6,23.18
		c17.15,0.77,34.31,1.16,51.47,1.74c109.26,3.71,218.53,7.44,327.79,11.15c25.32,0.86,50.69,3.04,75.94,2.1
		c27.53-1.02,54.9-2.24,82.32,1.22c8.44,1.06,15.04-4.57,15.84-12.45c0.78-7.56-5.17-14.17-13.46-15.12
		c-25.07-2.87-50.19-3.12-75.37-1.92c-2.77,0.13-6.28-1.06-8.36-2.88c-9.53-8.33-18.59-17.2-27.97-25.71
		c-22.83-20.67-44.6-42.6-70.75-59.34c-36.73-23.52-76.46-39.1-119.8-44.44c-20.47-2.52-41.15-3.7-61.78-4.57
		c-20.41-0.86-40.71-3.37-61.3-1.72c-23.87,1.91-47.41,5.21-70.13,12.59c-61.48,19.96-112.19,55.39-151.18,107.18
		c-2.03,2.69-4.13,3.8-7.49,3.77c-15-0.15-30.01,0.21-45-0.14c-19.43-0.45-37.85,15.76-37.14,36.86c0.26,7.66,0.02,15.33,0.02,23
		c0,22.5-0.08,45,0.08,67.5c0.03,4.34-1.39,6.13-5.77,5.8c-2.98-0.23-6.01-0.17-8.99,0.06c-11.02,0.86-18.64,8.67-18.68,19.62
		c-0.12,28.83-0.11,57.67,0.01,86.5c0.04,9.36,6.38,16.96,15.47,19.02c6.17,1.4,12.39,2.56,18.6,3.81
		c32.49,6.53,64.99,12.97,97.43,19.74c2.42,0.51,5.35,2.91,6.37,5.18c14.17,31.43,49.65,60.1,96.15,54.92
		c32.68-3.64,56.8-20.41,73.04-48.72c1.82-3.17,3.71-4.51,7.39-4.47c16,0.17,32,0.15,48,0c6.38-0.06,12.01-5.18,12.91-11.17
		c1.05-7.02-2.53-13.25-9.14-15.29c-2.5-0.77-5.23-1.06-7.86-1.09c-11.83-0.11-23.67-0.03-35.5-0.07c-2.27-0.01-4.64,0.45-4.84-3.29
		c-0.55-10.59-1.52-21.16-2.09-31.74c-0.06-1.06,1.27-2.7,2.36-3.2c1.25-0.57,2.94-0.19,4.44-0.19c122,0,244.01,0,366.01,0
		c0.83,0,1.67,0.07,2.5-0.01c3.74-0.35,4.31,1.29,3.92,4.79c-1,8.91-1.76,17.86-2.06,26.82c-0.23,6.82,0.15,6.84-6.58,6.84
		c-84.34,0-168.67-0.01-253.01,0.03c-2.98,0-6.06,0.04-8.91,0.77c-8.62,2.19-12.73,10.63-9.19,18.75c2.76,6.32,8.03,8.18,14.63,8.17
		c88.67-0.08,177.34-0.03,266.01-0.12c3.91,0,6.38,0.91,8.29,4.63c13.74,26.79,47.84,53.76,92.88,48.54
		c32.64-3.79,56.75-20.54,72.91-48.91c1.7-2.99,3.52-4.3,7.02-4.25c12.83,0.18,25.67,0.14,38.5,0.05
		c28.25-0.2,50.63-22.06,50.87-50.27C1023.14,605.86,1023.49,572.01,1022.73,538.2z M517.7,404c5.39-26.73,5.74-53.59,1.77-80.54
		c-0.39-2.64-0.65-5.3-1.22-7.9c-0.84-3.86,0.6-4.6,4.25-4.06c44.91,6.7,85.76,23.44,121.42,51.42
		c19.75,15.49,37.78,33.18,56.56,49.91c0.59,0.52,0.95,1.3,2.32,3.23c-3.33,0-5.41,0.06-7.47-0.01
		c-57.62-1.94-115.25-3.89-172.87-5.85C516.73,410,516.58,409.6,517.7,404z M419.37,314.34c21.33-6.11,42.96-9.04,65.17-6.25
		c2.82,0.35,3.98,1.34,4.62,4.06c5.3,22.44,6.54,45.14,4.25,68.01c-0.81,8.09-2.86,16.04-4.03,24.1c-0.57,3.91-2.56,4.72-6.11,4.58
		c-29.98-1.11-59.96-2.1-89.94-3.11c-34.15-1.15-68.29-2.27-102.44-3.45c-1.91-0.07-3.81-0.47-5.71-0.72
		c-0.24-0.51-0.47-1.01-0.71-1.52c2.72-3.06,5.35-6.19,8.16-9.15C327.87,353.78,370.22,328.41,419.37,314.34z M117.19,439.38
		c0-1.41,0.46-2.82,0.97-5.72c1.84,2.18,2.73,3.09,3.45,4.11c10.61,15.13,21.05,30.38,31.86,45.36c4.97,6.89,3.66,14.29,2.46,21.55
		c-0.29,1.78-4.06,4.13-6.33,4.25c-9.47,0.49-18.98,0.18-28.47,0.26c-3.1,0.03-4-1.54-4-4.36
		C117.18,483.02,117.14,461.2,117.19,439.38z M188.42,629.45c-1.2,6.68-1.72,13.5-2.09,20.28c-0.2,3.68-1.35,4.5-4.91,3.77
		c-30.29-6.23-60.62-12.27-90.9-18.5c-2.59-0.53-6.29,0.11-6.55-4.5c-0.33-5.94,0.09-6.61,6.05-6.61c15.31-0.01,30.62,0,45.93,0
		c15.81,0,31.62,0.12,47.42-0.07C187.73,623.76,189.28,624.69,188.42,629.45z M280.63,716.26c-36.68,0.1-66.68-29.9-66.74-66.75
		c-0.06-36.82,29.92-66.89,66.63-66.82c36.53,0.07,66.46,29.95,66.56,66.45C347.19,685.95,317.28,716.16,280.63,716.26z
		 M843.5,716.27c-36.7,0.04-66.62-29.99-66.62-66.86c0-36.84,29.99-66.82,66.72-66.71c36.5,0.11,66.41,30.06,66.46,66.56
		C910.11,686.05,880.14,716.22,843.5,716.27z M995.13,629.55c-0.59,5.75,0,11.82-1.65,17.23c-2.95,9.67-10.26,15.05-20.49,15.4
		c-10.48,0.35-20.99,0.08-31.48,0.17c-3.17,0.03-4.05-1.01-4.14-4.43c-0.24-9.77-0.85-19.57-2.02-29.27
		c-0.45-3.75,0.21-4.82,3.78-4.79c8.66,0.09,17.32,0.03,25.99,0.03c8.16,0,16.34,0.24,24.48-0.1
		C994.17,623.59,995.57,625.29,995.13,629.55z M982.51,554.9c-17.4,0.19-33.68-4.08-47.42-15.33c-2.91-2.38-4.75-6.09-7.08-9.18
		c3.32-1.23,6.58-3.33,9.95-3.53c17.08-1.01,34.19-1.62,51.3-2.05c1.45-0.04,3.92,2.02,4.27,3.5c1.1,4.64,1.43,9.48,2.05,14.23
		C994.64,556.25,998.2,554.72,982.51,554.9z"/>
	<path class="st1" d="M339.69,459.67c-2.3-0.29-4.65-0.26-6.98-0.38c0,0.08,0,0.16,0,0.24c-2,0-4.01-0.15-5.99,0.03
		c-7.29,0.64-12.29,5.89-12.59,13.07c-0.29,6.81,4.2,12.99,11.12,13.8c5.37,0.63,11.02,0.54,16.34-0.4
		c6.31-1.11,10.13-7.39,9.63-13.89C350.69,465.48,346.15,460.49,339.69,459.67z"/>
	<path class="st1" d="M550.95,459.62c-2.14-0.22-4.32-0.03-6.48-0.03c0-0.01,0-0.02,0-0.04c-2,0-4.01-0.15-5.99,0.03
		c-7.17,0.64-12.03,5.59-12.48,12.56c-0.47,7.28,3.8,13.34,11.02,14.28c5.05,0.66,10.34,0.61,15.38-0.13
		c6.62-0.98,10.99-7.13,10.69-13.67C562.78,465.69,557.86,460.34,550.95,459.62z"/>
	<path class="st1" d="M843.43,603.44c-25.37,0.05-46.26,21.04-46.04,46.25c0.21,25.22,20.89,45.76,46.02,45.73
		c25.57-0.03,45.88-20.53,45.79-46.2C889.1,623.9,868.6,603.39,843.43,603.44z M843.02,667.65c-9.8-0.16-18.04-8.57-17.95-18.32
		c0.09-9.96,8.65-18.24,18.71-18.09c9.86,0.14,17.86,8.4,17.78,18.35C861.48,659.81,853.26,667.81,843.02,667.65z"/>
	<path class="st1" d="M280.65,603.44c-25.41,0-46.28,20.79-46.23,46.07c0.05,25.17,20.72,45.87,45.83,45.91
		c25.6,0.04,46.01-20.39,45.97-46.02C326.18,624.01,305.79,603.45,280.65,603.44z M280.25,667.65c-9.82-0.08-18.11-8.36-18.16-18.13
		c-0.05-9.92,8.51-18.37,18.53-18.3c9.88,0.07,17.97,8.23,18,18.16C298.65,659.56,290.42,667.74,280.25,667.65z"/>
</g>
</svg>
