<?xml version="1.0" encoding="utf-8"?>
<!-- Generator: Adobe Illustrator 26.2.1, SVG Export Plug-In . SVG Version: 6.00 Build 0)  -->
<svg version="1.1" id="Capa_1" xmlns="http://www.w3.org/2000/svg" xmlns:xlink="http://www.w3.org/1999/xlink" x="0px" y="0px"
	 viewBox="0 0 1080 1080" style="enable-background:new 0 0 1080 1080;" xml:space="preserve">
<style type="text/css">
	.st0{enable-background:new    ;}
	.st1{fill:#FFFFFF;}
</style>
<g class="st0">
	<path class="st1" d="M759.95,288.79c-23.08-56.68-57.91-104.24-110.62-136.78c-52.85-32.63-109.57-40.86-169.31-22.59
		c-44.15,13.51-79.93,39.85-109.43,74.87c-42.39,50.31-65.2,109.13-73.38,173.84c-5.03,39.77-3.55,79.46,4.42,118.85
		c10.45,51.62,30.61,98.87,63.63,140.14c33.51,41.86,74.99,72.08,127.87,84.85c4.38,1.06,5.41,3.15,4.94,7.38
		c-2.25,20.19-3.8,40.48-6.48,60.61c-2.22,16.66-5.49,33.22-12.51,48.71c-4.99,11.01-8.42,22.45-9.73,34.47
		c-2.2,20.13,0.44,39.48,11.85,56.55c14.92,22.33,36.65,31.36,63.11,30.27c22.84-0.95,41.45-10.18,54.18-29.13
		c15.92-23.69,16.41-49.8,8.73-76.33c-3.41-11.8-9.06-22.97-12.22-34.82c-8.05-30.24-10.44-61.34-12.5-92.45
		c-0.2-3.05,1-4.12,3.63-4.82c6.11-1.63,12.25-3.22,18.23-5.26c49.03-16.74,87.37-47.83,117.51-89.24
		c44.32-60.87,63.23-129.88,63.73-186.09C785.59,376.91,777.51,331.9,759.95,288.79z M585.82,851.4c4.11,10.7,6.71,21.6,6.65,33.1
		c-0.18,19.68-5.73,37.08-23.16,48.2c-27.17,17.34-76.68,9.2-81.06-41.47c-1.24-14.39,1.17-28.34,7.21-41.4
		c9.16-19.78,13.21-40.83,16.02-62.13c2.44-18.48,3.87-37.09,5.56-55.66c0.35-3.88,1.43-5.38,5.76-5.24
		c11.62,0.39,23.27,0.32,34.89,0c4-0.11,5.6,0.68,5.85,4.99c1.78,29.94,4.37,59.83,11.75,89
		C577.92,831.23,581.95,841.33,585.82,851.4z M722.28,592.27c-25.44,43.45-59.19,78.64-105.76,99.32
		c-61.84,27.47-121.86,21.82-178.77-14.13c-43.62-27.56-73.49-67.1-94.61-113.6c-19.53-43-29.59-91.66-29.41-144.5
		c0.59-59.27,15.44-118.83,49.68-172.83c23.55-37.15,53.69-67.64,93.67-86.98c64.32-31.11,127-26.45,186.75,11.9
		c46.78,30.03,77.5,73.47,98.11,124.38c19.51,48.2,26.79,98.41,23.6,150.27C762.32,498.17,748.69,547.16,722.28,592.27z"/>
	<path class="st1" d="M627.7,207.49c-47.72-29.27-98.07-34.09-150.25-12.87c-34.98,14.23-62.26,38.28-84,68.7
		c-34.31,48.01-48.95,102.22-49.65,156.8c0.25,38.85,5.74,72.92,18.29,105.64c18.46,48.14,47.2,88.34,91.8,115.67
		c33.57,20.58,70.12,28.69,109.22,23.06c37.35-5.38,69.16-22.46,96.2-48.39c38.32-36.75,60.68-82.18,71.01-133.8
		c11.52-57.56,6.77-113.82-15.56-168.19C696.59,269.87,668.95,232.79,627.7,207.49z M667.55,578.03
		c-22.21,29.43-50.08,51.55-85.85,62.4c-42.62,12.92-82.82,6.48-120.18-17.03c-39.79-25.05-65.25-61.68-81.55-105.05
		c-15.34-40.81-20.1-83.11-14.9-126.31c6.69-55.5,27.11-104.88,67.5-144.71c23.09-22.77,50.4-38.28,82.54-43.92
		c40.07-7.03,76.81,2.19,109.97,25.35c36.06,25.19,59.6,59.96,75.01,100.6c11.51,30.38,16.64,61.97,16.92,98.57
		C716.18,480.22,701.96,532.44,667.55,578.03z"/>
	<path class="st1" d="M540.32,852.33c-17.55-0.26-32.17,14.23-32.28,31.97c-0.11,17.94,13.89,32.2,31.77,32.36
		c17.64,0.16,32-13.79,32.28-31.34C572.39,867.18,558.33,852.59,540.32,852.33z M540.01,897.21c-7.03-0.03-12.71-5.64-12.76-12.59
		c-0.04-6.81,5.81-12.79,12.6-12.87c7.02-0.08,13.12,6,13.01,12.98C552.76,891.66,547.01,897.24,540.01,897.21z"/>
	<path class="st1" d="M629.36,414.77c-4.59-0.43-7.39,2.31-10.26,5.19c-46.87,46.91-93.76,93.8-140.63,140.71
		c-1.06,1.06-2.15,2.12-3.01,3.33c-2.85,4.04-2.43,8.92,0.93,12.32c3.09,3.13,8.12,3.79,11.94,1.26c1.92-1.27,3.56-3,5.2-4.64
		c34.07-34.03,68.11-68.08,102.16-102.13c12.61-12.61,25.28-25.15,37.76-37.88c2.22-2.26,3.67-5.27,4.65-6.72
		C638.28,419.37,634.41,415.24,629.36,414.77z"/>
	<path class="st1" d="M570.55,309.36c3.78-6.36-0.69-14.26-10.23-14.41c-1.54,1.09-4.89,2.83-7.45,5.38
		c-46.71,46.55-93.32,93.2-139.94,139.84c-1.17,1.17-2.38,2.36-3.33,3.71c-2.83,4.01-2.46,9.05,0.79,12.36
		c3.44,3.52,8.64,3.96,12.72,0.91c1.59-1.19,2.96-2.68,4.38-4.09c46.41-46.38,92.81-92.77,139.19-139.18
		C568.08,312.49,569.55,311.04,570.55,309.36z"/>
	<path class="st1" d="M661.26,382c-6-0.63-21.26,15.26-22.25,22.11c1.9,2.47,3.33,6.01,5.83,7.13c2.72,1.22,7.43,1.48,9.55-0.12
		c5.5-4.14,10.3-9.32,14.89-14.51c2.6-2.94,2.77-7.23,0.18-10.16C667.49,384.23,664.17,382.31,661.26,382z"/>
	<path class="st1" d="M583.97,292.93c5.82-0.24,20.93-15.59,21.02-21.37c0.11-7.34-8.04-12.77-13.83-8.45
		c-6.01,4.49-11.58,10.05-15.95,16.13C571,285.12,576.67,293.23,583.97,292.93z"/>
</g>
</svg>
