<?xml version="1.0" encoding="utf-8"?>
<!-- Generator: Adobe Illustrator 26.2.1, SVG Export Plug-In . SVG Version: 6.00 Build 0)  -->
<svg version="1.1" id="Capa_1" xmlns="http://www.w3.org/2000/svg" xmlns:xlink="http://www.w3.org/1999/xlink" x="0px" y="0px"
	 viewBox="0 0 1080 1080" style="enable-background:new 0 0 1080 1080;" xml:space="preserve">
<style type="text/css">
	.st0{enable-background:new    ;}
	.st1{fill:#FFFFFF;}
</style>
<g class="st0">
	<path class="st1" d="M909.85,973.19c-1.12-12.61-1.39-25.29-2.05-37.93c-2.58-49.09-5.25-98.17-7.76-147.26
		c-3.14-61.41-6.12-122.82-9.23-184.23c-3.3-65.23-6.83-130.46-9.83-195.71c-0.41-8.85-2.55-16.3-7.23-23.77
		c-13.24-21.17-25.89-42.72-38.69-64.16c-2.68-4.48-5.96-8.2-11.34-8.93c-3.61-0.5-7.32-0.26-10.98-0.29
		c-5.42-0.04-10.84-0.01-16.48-0.01c0-1.54-0.12-2.2,0.02-2.81c2.99-12.8,5.9-25.62,9.05-38.38c2.87-11.64-1.27-18.84-12.86-21.55
		c-39.89-9.33-79.75-18.76-119.7-27.79c-7.02-1.59-10.52-4.24-12.71-11.79c-17.81-61.38-79.62-98.37-138.19-88.97
		c-34.02,5.46-61.59,21.52-82.49,48.86c-2.46,3.22-4.98,4.85-8.9,5.3c-30.95,3.57-61.88,7.27-92.81,10.94
		c-22.66,2.69-45.34,5.28-67.97,8.18c-8.32,1.07-13.36,7.6-12.56,15.82c0.96,9.94,2.28,19.85,3.45,29.78
		c2.59,21.83,5.25,43.66,7.73,65.5c0.78,6.87,0.54,7.26-6.19,6.82c-8.74-0.56-14.3,3.2-18.66,10.59
		c-13.79,23.37-28,46.49-41.91,69.79c-1.4,2.35-2.52,5.23-2.66,7.92c-1.42,27.29-2.54,54.59-3.89,81.88
		c-2.42,48.93-4.91,97.85-7.42,146.78c-2.58,50.26-5.23,100.51-7.83,150.76c-1.45,28.12-2.91,56.24-4.29,84.37
		c-1.82,37.11-3.68,74.23-5.26,111.35c-0.53,12.42,4.89,17.55,17.33,17.55c234.84,0,469.68-0.05,704.52,0.16
		C903.19,991.98,910.85,984.51,909.85,973.19z M788.37,342.73c0.31-1.23,2.43-2.03,3.76-2.97c0.22-0.16,0.65-0.03,0.98-0.03
		c6.46,0.14,14-1.73,19.08,1c4.84,2.6,7.22,9.92,10.5,15.29c5.37,8.78,10.58,17.66,15.84,26.51c0.14,0.24,0.02,0.65,0.02,1.51
		c-19.72,0-39.47,0-60.06,0C781.85,369.78,784.97,356.22,788.37,342.73z M703.16,257.15c22.19,5.21,44.37,10.48,66.61,15.49
		c3.73,0.84,4.57,2.35,3.75,5.83c-8.01,33.99-15.96,68-23.86,102.02c-0.67,2.9-2.03,4.14-5.13,4.13
		c-26.15-0.09-52.31-0.1-78.46,0.01c-3.27,0.01-4.35-1.62-5-4.32c-5.72-23.94-11.47-47.87-17.21-71.8
		c-2.95-12.29-5.78-24.61-8.85-36.87c-1.93-7.7-8.88-12.18-16.74-10.71c-6.86,1.28-13.63,3.09-20.45,4.62
		c-1.21,0.27-2.46,0.35-4.6,0.65c1.79-7.98,3.26-15.25,5.06-22.44c2.6-10.34,2.75-10.52,13.03-8.14
		C641.94,242.69,672.54,249.96,703.16,257.15z M631.8,384.57c-2.19,0-3.97,0-5.75,0c-70.17,0-140.33-0.04-210.5,0.09
		c-4.17,0.01-6.37-1-7.28-5.31c-2.24-10.58-4.63-21.14-7.46-31.57c-1.05-3.86,0.15-5.06,3.5-5.86c17.34-4.1,34.65-8.29,51.98-12.46
		c34.48-8.29,68.96-16.59,103.44-24.88c15.22-3.66,30.46-7.22,45.64-11.01c3.51-0.88,5.18-0.1,6.04,3.52
		c6.73,28.33,13.58,56.63,20.38,84.94C631.9,382.48,631.8,382.99,631.8,384.57z M575.39,154.27c25.69,10.16,43.68,28.64,54.02,54.13
		c-0.3,0.46-0.6,0.92-0.9,1.38c-7.87-1.8-15.74-3.62-23.62-5.4c-4.22-0.95-8.41-2.18-12.68-2.71c-8.57-1.07-14.52,3.23-16.52,11.61
		c-4.4,18.45-8.93,36.86-12.98,55.39c-0.99,4.51-2.97,6.72-7.33,7.22c-0.82,0.09-1.6,0.45-2.41,0.64c-7.15,1.67-7.31,1.41-8.15-5.89
		c-3.53-30.93-7.11-61.86-10.81-92.77c-1.26-10.56-7.83-15.45-18.34-14.19c-9.92,1.2-19.84,2.39-29.76,3.55
		c-0.93,0.11-1.89,0.01-2.83,0.01c-0.1-0.51-0.21-1.02-0.31-1.53C511.56,146.06,542.61,141.31,575.39,154.27z M292.94,218.96
		c11.1-1.2,22.18-2.53,33.26-3.83c26.8-3.16,53.6-6.33,80.41-9.49c31.43-3.7,62.88-7.28,94.29-11.18c5.12-0.63,6.09,1.23,6.59,5.79
		c2.87,26.32,5.94,52.63,9.3,78.9c0.58,4.5-0.5,6.23-4.78,7.23c-24.64,5.78-49.23,11.76-73.83,17.66
		c-19.59,4.69-39.19,9.31-58.76,14.07c-8.63,2.1-13.16,9.67-11.1,18.29c3.51,14.73,7.11,29.44,10.64,44.16
		c0.22,0.94,0.21,1.93,0.42,3.99c-2.21,0-3.82,0-5.44,0c-20.5,0-41-0.11-61.5,0.1c-4.06,0.04-5.52-1.3-5.96-5.21
		c-2.44-21.68-5.07-43.34-7.64-65.01c-2.55-21.5-5.1-43-7.64-64.5c-0.99-8.44-1.73-16.91-2.99-25.3
		C287.59,220.48,289.35,219.35,292.94,218.96z M244.64,376.15c6.57-10.98,13.05-22.01,19.88-32.82c1.08-1.71,3.8-2.39,5.76-3.54
		c1.02,1.85,2.69,3.61,2.94,5.56c1.53,11.7,2.67,23.44,4.09,35.16c0.33,2.72-0.22,4.1-3.24,4.08c-10.31-0.07-20.62-0.01-30.93-0.06
		c-0.75,0-1.5-0.45-2.78-0.86C241.91,380.95,243.23,378.52,244.64,376.15z M873.54,962.85c-111.33,0-222.66,0-333.99,0
		c-110.83,0-221.66,0-332.49,0c-7.45,0-7.6-0.01-7.25-7.26c1.83-37.61,3.73-75.22,5.65-112.83c2.1-41.1,4.24-82.2,6.36-123.3
		c1.93-37.44,3.86-74.88,5.78-112.32c2.05-39.94,4.1-79.87,6.14-119.81c1.17-22.96,2.35-45.93,3.41-68.89
		c0.14-3,1.32-4.26,4.24-4.11c1.33,0.07,2.67-0.01,4-0.01c202.83,0,405.66,0,608.48,0c1,0,2.01,0.1,3-0.01
		c4.23-0.49,5.36,1.56,5.45,5.53c0.19,8.66,0.87,17.3,1.3,25.96c2.48,49.42,4.88,98.85,7.42,148.27
		c2.56,49.92,5.29,99.83,7.86,149.75c2.1,40.77,4.04,81.54,6.1,122.31c1.52,30.12,3.14,60.23,4.66,90.35
		C879.99,962.84,879.89,962.85,873.54,962.85z"/>
	<path class="st1" d="M627.7,450.85c-14.28,8.93-21.51,22.24-20.89,39c0.64,16.96,9.02,29.62,24.05,37.68
		c2.79,1.49,5.58,2.38,5.52,6.62c-0.25,17.99,0.39,36.01-0.32,53.98c-2.29,57.68-53,99.82-110.07,91.9
		c-44.51-6.18-79.63-43.35-82.24-88.02c-1.07-18.27-0.35-36.64-0.81-54.96c-0.13-5.03,1.46-7.57,6.05-9.89
		c20.58-10.39,29.19-35.1,20.13-56.37c-8.87-20.82-32.93-31.62-54.43-24.45c-16.63,5.55-28.95,21.18-30.12,38.19
		c-1.26,18.3,7.98,35.07,24.27,42.97c4.15,2.01,5.4,4.44,5.24,8.81c-0.31,8.82-0.09,17.66-0.09,26.49c0,1.67,0.02,3.33,0,5
		c-0.3,17.69,0.01,35.33,5.21,52.48c23.38,76.98,110.45,113.03,180.99,74.15c37.42-20.63,59.48-53.03,63.89-95.75
		c2.13-20.63,1.12-41.59,1.23-62.41c0.02-4.37,1.2-6.75,5.31-8.79c22.53-11.16,30.94-38.63,18.85-60.55
		C677.33,444.94,649.12,437.45,627.7,450.85z M415.65,495.1c-3.59-6.82-2.15-13.95,3.51-18.53c5.62-4.55,13.17-4.54,18.84,0.03
		c5.6,4.52,7.02,11.62,3.65,18.21C428.44,486.53,426.29,486.53,415.65,495.1z M663.7,495.01c-11.05-9.74-17.44-7.32-25.94-1.27
		c-3.32-5.16-2-12.19,3.14-16.75c5.64-5.01,13.78-5.04,19.62-0.21C665.05,480.53,668.44,489.81,663.7,495.01z"/>
</g>
</svg>
