<?xml version="1.0" encoding="utf-8"?>
<!-- Generator: Adobe Illustrator 26.2.1, SVG Export Plug-In . SVG Version: 6.00 Build 0)  -->
<svg version="1.1" id="Capa_1" xmlns="http://www.w3.org/2000/svg" xmlns:xlink="http://www.w3.org/1999/xlink" x="0px" y="0px"
	 viewBox="0 0 1080 1080" style="enable-background:new 0 0 1080 1080;" xml:space="preserve">
<style type="text/css">
	.st0{enable-background:new    ;}
	.st1{fill:#FFFFFF;}
</style>
<g class="st0">
	<path class="st1" d="M961.56,316.61c-0.01-5.72-0.97-11.75-2.93-17.11c-9.62-26.27-33.09-39.42-60.61-34.36
		c-4.01,0.74-7.89,2.21-12.15,3.44c-1.53-3.75-2.84-7.32-4.43-10.76c-9.53-20.59-32.17-32.61-55.22-29.38
		c-21.69,3.03-40.33,20.75-43.48,42.43c-1.38,9.5-0.96,19.25-1.4,28.89c-0.09,1.88-0.37,3.76-0.62,6.14
		c-3.05-0.93-5.38-1.74-7.76-2.36c-9.04-2.38-18.23-2.69-27.18-0.11c-24.59,7.08-38.99,26.5-39.14,52.16c-0.03,5.45,0,10.91,0,17.34
		c-2.41-0.7-3.66-1.01-4.87-1.43c-13.73-4.78-27.32-4.32-40.28,2.22c-20.07,10.12-29.76,26.79-29.74,49.23
		c0.03,42.51,0,85.01,0.02,127.52c0,1.83,0.07,3.67,0.31,5.48c0.89,6.52,5.74,11.41,12.01,12.23c7.41,0.96,14.16-2.29,16.33-8.61
		c1.11-3.22,1.29-6.87,1.3-10.33c0.08-41.17,0.03-82.34,0.1-123.52c0.01-3.63,0.29-7.36,1.12-10.89
		c2.88-12.19,17.17-19.42,28.81-14.8c9.66,3.83,14.84,11.75,14.85,23.18c0.05,42.51-0.08,85.01,0.16,127.52
		c0.03,5.35-1.81,8.42-6.09,11.34c-28.89,19.72-57.89,39.29-86.32,59.66c-29.53,21.16-45.18,50.54-45.57,86.84
		c-0.64,60.33,0.04,120.68-0.33,181.02c-0.15,25.73,20.92,47.66,48.05,47.47c47.67-0.33,95.34-0.03,143-0.18
		c5.24-0.02,10.67-0.58,15.68-2.05c17.43-5.13,28.9-16.64,32.15-34.6c1.76-9.73,1.8-19.91,1.42-29.85
		c-0.84-21.77,6.69-39.75,21.39-55.66c31.21-33.79,61.78-68.15,92.78-102.13c24.97-27.36,38.57-59.35,38.66-96.43
		C961.85,516.3,961.73,416.45,961.56,316.61z M811.62,421.4c0-46.16,0.04-92.33-0.02-138.49c-0.01-9.62,3.48-17.32,11.99-22.05
		c14.3-7.94,31.24,1.77,32.8,18.66c0.3,3.31,0.16,6.66,0.16,9.99c0.01,36.33,0.01,72.66,0.01,108.99c0,36.83-0.19,73.66,0.08,110.49
		c0.13,17.26-5.54,31.55-18.87,42.7c-3.32,2.78-6.48,5.75-9.61,8.74c-2,1.92-3.56,1.88-5.4-0.28c-2.27-2.66-4.63-5.27-7.24-7.59
		c-2.98-2.65-3.98-5.71-3.96-9.68C811.66,502.39,811.62,461.89,811.62,421.4z M765.55,332.8c8.08,2.5,14.68,9.91,15.49,18.36
		c0.24,2.48,0.29,4.99,0.29,7.48c0.02,55.47,0.01,110.95,0.01,166.42c0,6.83-0.01,6.82-6.75,6.24c-11.96-1.03-23.61,0.06-34.66,5.16
		c-0.55,0.26-1.22,0.27-2.49,0.52c-0.19-2.02-0.5-3.74-0.5-5.47c-0.02-58.47,0.24-116.95-0.17-175.42
		C736.66,338.91,751.9,328.59,765.55,332.8z M899.8,693.09c-31.11,33.87-61.66,68.25-92.75,102.14
		c-19.16,20.87-29.24,44.95-28.4,73.43c0.2,6.99,0.13,14-0.01,21c-0.21,10.25-6.81,16.78-17.09,16.79
		c-48.66,0.05-97.33,0.05-145.99,0c-10.19-0.01-16.6-6.32-16.61-16.51c-0.06-60-0.17-120,0.05-180c0.1-27.26,11.95-48.95,34.05-64.5
		c37.05-26.07,74.43-51.66,111.83-77.22c16.7-11.41,34.7-9.21,48.87,5.26c9.5,9.69,9.52,9.71-0.22,18.79
		c-24.02,22.38-48.1,44.69-72.03,67.16c-2.6,2.44-5.16,5.42-6.42,8.66c-2.46,6.34,0.06,13.28,5.18,16.9
		c5.64,3.99,12.97,3.95,18.54-0.73c6.24-5.25,12.12-10.93,18.12-16.47c33.03-30.54,65.98-61.18,99.12-91.62
		c11.58-10.63,22.07-22.11,26.23-37.56c2.57-9.53,4.22-19.61,4.28-29.46c0.37-63,0.21-126,0.17-189c0-7.2,1.01-13.96,6.41-19.33
		c6.94-6.9,15.81-8.9,24.8-4.86c8.66,3.9,13.35,10.96,13.38,20.52c0.11,39.17,0.06,78.33,0.07,117.5c0,12,0,24,0,36
		c0,46.83-0.37,93.67,0.13,140.5C931.82,642.42,921.35,669.62,899.8,693.09z"/>
	<path class="st1" d="M492.45,650.29c-10.16-15.81-24.34-27.25-39.89-37.18c-4-2.55-5.34-5.58-5.33-10.28
		c0.15-58,0.1-116.01,0.09-174.01c0-3.67,0.02-7.34-0.2-11c-2.01-32.99-32.45-55.49-64.64-47.78c-3.12,0.75-6.2,1.65-10.32,2.76
		c1.49-21.62,0.46-41.85-16.42-57.07c-16.76-15.11-36.04-17.15-57.49-9.91c-0.2-2.73-0.38-4.96-0.53-7.19
		c-0.69-10.78,0.07-21.9-2.36-32.27c-4.89-20.84-24.45-36.63-44.64-38.12c-23.94-1.77-44,9.67-53.53,30.6
		c-1.43,3.14-2.63,6.37-4.17,10.13c-11.89-5.05-23.33-6.32-35.36-3.76c-20.43,4.34-39,24.63-39.31,45.06
		c-0.49,32.16-0.22,64.33-0.15,96.5c0.01,6.67,5.03,12,11.59,12.98c10.08,1.52,17.84-5.22,17.88-15.79
		c0.09-29.33-0.03-58.67,0.12-88c0.05-10.42,7.32-19.01,17.59-21.56c9.21-2.29,19.93,2.44,24.11,11.76
		c2.02,4.51,2.73,9.95,2.75,14.98c0.18,62.67,0.05,125.34,0.21,188.01c0.02,7.29,0.59,14.71,2.07,21.83
		c3.62,17.4,13.36,31.19,26.35,43.12c38.78,35.62,77.34,71.49,116.01,107.23c1.7,1.57,3.49,3.13,5.47,4.31
		c5.38,3.19,10.86,2.94,16.04-0.44c5.11-3.33,7.58-8.5,6.11-14.2c-1.05-4.06-3.56-8.31-6.61-11.21
		c-23.94-22.7-48.17-45.1-72.31-67.6c-9.7-9.04-9.69-9.04-0.51-18.42c14.71-15.01,32.83-16.86,50.11-4.97
		c36.63,25.21,73.34,50.31,109.8,75.78c22.45,15.68,34.95,37.34,35.08,65c0.29,60.17,0.14,120.34,0.07,180.51
		c-0.01,10.06-6.56,16.34-16.8,16.35c-48.5,0.05-97,0.05-145.49,0.01c-10.87-0.01-17.28-6.49-17.42-17.48c-0.1-8-0.05-16-0.04-24
		c0.04-24.5-7.71-46.27-24-64.52c-32.4-36.3-65.19-72.25-97.83-108.33c-8.31-9.18-15.56-19.05-20.75-30.39
		c-7.05-15.41-10.17-31.53-10.12-48.46c0.14-46.84,0.07-93.67,0.01-140.51c-0.01-9.59-6.4-16.03-15.42-15.93
		c-8.85,0.1-14.1,5.9-14.1,15.69c-0.01,48.67-0.08,97.34,0.07,146.01c0.02,7.8,0.25,15.75,1.69,23.38
		c5.14,27.19,17.88,50.54,36.51,70.96c32.69,35.82,65.18,71.81,97.55,107.92c10.34,11.54,15.74,25.37,16.04,40.98
		c0.18,9.5,0.04,19,0.17,28.5c0.37,26.85,21.48,46.7,47.26,46.68c48.66-0.04,97.33,0.03,145.99-0.09c4.08-0.01,8.27-0.68,12.23-1.73
		c21.25-5.66,34.73-23.01,34.77-44.98c0.09-60.34,0.1-120.67-0.03-181.01C510.36,687.8,504,668.26,492.45,650.29z M262.9,553.31
		c-9.39,9.44-9.19,9.5-19.38,0.44c-7.93-7.05-15.43-14.46-18.27-25.04c-1.5-5.57-2.66-11.43-2.67-17.17
		c-0.18-76.16-0.19-152.33-0.08-228.49c0.02-16.3,11-26.4,25.87-24.5c10.39,1.33,18.64,10.65,18.99,21.84
		c0.24,7.83,0.08,15.66,0.08,23.5c0,36.33,0,72.66,0,109c0,43-0.07,86,0.1,128.99C267.56,546.6,266.22,549.98,262.9,553.31z
		 M342.13,529.98c0,2.23-0.28,4.46-0.49,7.62c-13.53-6.41-26.62-7.73-40.08-5.86c-2.69,0.37-3.74-0.61-3.81-3.11
		c-0.03-1-0.03-2-0.03-3c0-56.14,0.08-112.29-0.07-168.43c-0.03-10.22,3.16-18.28,12.57-23.06c13.72-6.96,30.67,2.63,31.75,17.92
		c0.18,2.49,0.17,4.99,0.17,7.49C342.15,416.36,342.15,473.17,342.13,529.98z M417.3,581.12c0,1.78-0.18,3.56-0.36,6.77
		c-2.53-1.45-3.95-2.14-5.24-3.03c-11.8-8.11-23.54-16.31-35.4-24.33c-2.77-1.87-3.95-3.99-3.94-7.4
		c0.1-43.48,0.02-86.97,0.1-130.45c0.03-14.94,10.33-24.76,24.64-23.83c8.68,0.56,17.05,7.41,19.02,15.95
		c0.78,3.37,1.13,6.92,1.14,10.38C417.33,477.16,417.31,529.14,417.3,581.12z"/>
</g>
</svg>
