<?xml version="1.0" encoding="utf-8"?>
<!-- Generator: Adobe Illustrator 26.2.1, SVG Export Plug-In . SVG Version: 6.00 Build 0)  -->
<svg version="1.1" id="Capa_1" xmlns="http://www.w3.org/2000/svg" xmlns:xlink="http://www.w3.org/1999/xlink" x="0px" y="0px"
	 viewBox="0 0 1080 1080" style="enable-background:new 0 0 1080 1080;" xml:space="preserve">
<style type="text/css">
	.st0{enable-background:new    ;}
	.st1{fill:#FFFFFF;}
</style>
<g class="st0">
	<path class="st1" d="M939.34,890.93c-3.94-1.91-5.1-4.14-5.08-8.36c0.16-38.33,0.15-76.67,0.02-115c-0.01-4.1,0.62-6.93,4.96-8.43
		c2.59-0.9,4.97-2.72,7.15-4.48c13.19-10.68,18.33-28.54,12.83-44.15c-5.7-16.17-20.45-27.03-37.64-27.19
		c-21.33-0.2-42.67-0.06-64-0.06c-1.94,0-3.88,0-5.98,0c0-1.55-0.21-2.42,0.03-3.14c6.15-18.91-5.69-40.42-22.76-47.58
		c-1.25-0.52-2.52-2.68-2.56-4.11c-0.25-7.66-0.02-15.33-0.17-22.99c-0.06-3.25,1.5-3.85,4.31-3.82c10.5,0.1,21,0.04,31.5,0.04
		c2.1,0,4.2,0,6.69,0c-0.13-2.21-0.08-3.7-0.32-5.13c-2.33-14.13-4.7-28.25-7.06-42.37c-4.94-29.56-9.79-59.13-14.89-88.66
		c-0.7-4.04,0.35-6.75,2.88-9.86c20.02-24.55,10.79-60.79-18.56-72.68c-3.72-1.51-4.6-3.41-4.57-7c0.13-16.17-0.1-32.34,0.17-48.5
		c0.07-4.09-1.36-5.9-5.04-7.18c-8.33-2.88-16.54-6.13-24.78-9.28c-1.41-0.54-2.72-1.33-5.2-2.58c37.45-15,73.6-29.48,111.04-44.48
		c-2.98-1.37-4.44-2.12-5.95-2.72c-20.73-8.26-41.48-16.46-62.19-24.75c-100.02-40.02-200.03-80.04-300.01-120.14
		c-3.48-1.4-6.44-1.53-10.01-0.1c-69.51,27.91-139.07,55.69-208.62,83.49c-51.16,20.45-102.32,40.9-153.47,61.37
		c-1.69,0.68-3.3,1.54-6.05,2.83c3.33,1.39,5.28,2.25,7.26,3.04c48.37,19.35,96.74,38.72,145.15,57.97c3.28,1.3,4.5,3.03,4.49,6.61
		c-0.11,52.33-0.13,104.67,0.02,157c0.01,4.54-1.47,5.57-5.74,5.51c-15.66-0.24-31.37-0.77-46.99,0.13
		c-11.87,0.68-24.07,1.92-35.37,5.38c-70.16,21.46-97.48,110.46-51.73,167.85c6.27,7.86,13.83,14.68,21.23,22.44
		c-6.17,2.66-12.53,5.06-18.59,8.05c-62.83,31.06-93.8,101.23-72.27,170.9c17.64,57.09,72.74,97.84,132.53,97.89
		c228.5,0.21,457,0.1,685.49,0.03c3.43,0,6.94-0.73,10.28-1.62c16.12-4.3,27.84-18.24,29.43-34.76
		C962.79,914.02,954.22,898.16,939.34,890.93z M837.41,574.64c-16.63,0-32.66,0-49.26,0c1.68-10.52,3.23-20.52,4.89-30.5
		c3.67-22,7.54-43.98,11.01-66.01c0.66-4.2,1.87-5.59,6.27-5.23c10.36,0.85,10.6,0.57,12.27,10.48
		c4.93,29.22,9.68,58.47,14.48,87.71C837.23,572.06,837.26,573.04,837.41,574.64z M714.75,505.85
		c-20.26,18.38-44.19,30.18-69.84,38.67c-48.18,15.94-97.8,19.3-148.09,15.92c-31.89-2.14-63.1-7.84-93.1-19.18
		c-22.43-8.49-43.51-19.4-61.05-36.12c-1.79-1.7-3.19-4.79-3.2-7.24c-0.18-51.66-0.14-103.31-0.13-154.97c0-1.45,0.2-2.91,0.37-5.33
		c15.62,6.23,30.43,12.12,45.23,18.05c46.66,18.67,93.3,37.41,140.03,55.9c2.44,0.96,5.97,0.75,8.46-0.24
		c60.5-23.99,120.93-48.16,181.37-72.29c0.88-0.35,1.82-0.54,3.36-0.98c0.1,2.18,0.26,3.94,0.26,5.7
		c0.01,51.16-0.02,102.31,0.08,153.47C718.53,500.85,717.46,503.38,714.75,505.85z M726.66,530.59c0.4-0.3,0.87-0.56,1.15-0.95
		c6.47-8.77,15.42-10.26,25.54-9.23c5.35,0.54,10.79,0.1,16.88,0.1c-1.54,9.01-2.82,17.01-4.39,24.96c-0.2,1.01-1.91,2.46-2.92,2.46
		c-19.12,0.1-38.23,0.02-57.35-0.06c-0.24,0-0.48-0.38-1-0.8C712.09,541.47,719.37,536.03,726.66,530.59z M413.15,574.88
		c11.14,0.22,22.25,3.44,33.32,5.58c36.85,7.14,74,9.02,111.42,6.77c26.18-1.58,51.96-5.62,77.35-12.18
		c1.9-0.49,3.97-0.41,5.96-0.42c37.99-0.02,75.98-0.02,113.97-0.01c5.98,0,6.17,0.26,5.13,6.27c-1.15,6.66-2.26,13.33-3.51,20.72
		c14.63,0,28.37,0,42.79,0c0,8.72,0.09,16.84-0.13,24.95c-0.02,0.89-1.66,1.97-2.77,2.53c-0.8,0.4-1.96,0.09-2.96,0.09
		c-177.78,0-355.56,0-533.35-0.01c-13.84,0-23.81-6.89-27.88-19.14c-5.58-16.78,7-35.01,24.71-35.33
		c16.32-0.29,32.66-0.08,48.98-0.09C341.84,574.61,377.51,574.16,413.15,574.88z M833.36,426.38c-0.06,11.12-9.27,20.2-20.5,20.19
		c-11.36,0-20.56-9.36-20.45-20.78c0.11-11.16,9.35-20.25,20.51-20.18C824.38,405.69,833.41,414.87,833.36,426.38z M796.39,339.43
		c1.41,0.56,3.05,2.75,3.09,4.21c0.25,11.48,0.25,22.97,0,34.45c-0.03,1.45-1.73,3.55-3.16,4.16
		c-31.46,13.54-40.19,48.86-18.55,75.03c1.27,1.54,2.01,4.21,1.76,6.2c-1.07,8.58-2.7,17.08-3.9,25.64
		c-0.51,3.67-2.09,5.08-5.9,4.91c-6.65-0.29-13.32-0.28-19.97,0c-3.84,0.16-4.78-1.29-4.76-4.91c0.13-26.47,0.07-52.94,0.07-79.41
		c0-25.8-0.01-51.61,0-77.41c0-5.84,5.71-10.23,11.27-8.2C769.76,329.01,783.11,334.14,796.39,339.43z M310.92,297.59
		c-25.81-10.33-51.61-20.68-77.41-31.04c-1.48-0.6-2.92-1.32-5.64-2.55c2.41-1.27,3.68-2.09,5.05-2.64
		c40.01-16.07,80.02-32.14,120.06-48.15c57.19-22.88,114.39-45.74,171.65-68.44c2.48-0.98,6-1.14,8.44-0.17
		c96.8,38.53,193.53,77.24,290.26,115.93c1.94,0.78,3.83,1.7,6.96,3.09c-2.28,1.22-3.43,1.97-4.68,2.48
		c-22.71,9.11-45.39,18.27-68.19,27.16c-2.18,0.85-5.28,0.68-7.52-0.16c-67.71-25.64-135.36-51.43-203.03-77.19
		c-2.02-0.77-4.03-1.58-6.05-2.35c-6.91-2.66-6.95-2.67-9.5,4.04c-2.23,5.86-4.35,11.75-6.7,18.11
		c64.17,24.46,127.37,48.55,190.57,72.64c0.02,0.47,0.05,0.94,0.07,1.42c-1.64,0.85-3.22,1.84-4.93,2.52
		c-49.91,19.98-99.83,39.93-149.74,59.88c-8.96,3.58-17.85,7.4-26.96,10.57c-2.82,0.98-6.65,1.13-9.37,0.05
		C453.11,354.5,382.02,326.03,310.92,297.59z M183.31,632.98c-20-47.57,9.99-102.49,60.89-111.03c7.98-1.34,16.24-1.28,24.38-1.38
		c15.83-0.2,31.66-0.14,47.49,0.04c2.12,0.02,4.58,0.84,6.27,2.11c9.98,7.46,19.78,15.16,29.64,22.79c0.5,0.39,0.96,0.83,1.44,1.24
		c-0.11,0.44-0.21,0.88-0.32,1.31c-1.75,0-3.51,0-5.26,0c-29.83,0-59.66-0.15-89.49,0.06c-23.56,0.17-43.31,14.65-50.8,36.69
		c-11.45,33.69,12.83,69.17,48.49,70.82c3.16,0.15,6.33,0.1,9.5,0.1c181.32,0,362.64,0.02,543.96-0.05c6.83,0,12.57,1.31,15.77,8.05
		c3.99,8.4-1.53,18.38-10.79,19.4c-1.65,0.18-3.33,0.12-4.99,0.12c-182.82,0-365.64,0.02-548.46-0.01
		C225.57,683.24,196.5,664.36,183.31,632.98z M922.49,940.09c-1.65,0.16-3.33,0.1-5,0.1c-225.83,0-451.65,0.02-677.48-0.01
		c-51.37-0.01-93.54-29.72-110.84-77.92c-20.84-58.04,11.2-124.97,69.67-145.61c13.5-4.76,27.34-6.9,41.66-6.89
		c111.33,0.1,222.66,0.05,333.99,0.05c114.5,0,228.99,0.02,343.49-0.06c6.68,0,12.21,1.44,15.4,7.86
		c4.23,8.53-1.47,18.77-10.98,19.61c-2.48,0.22-5,0.1-7.5,0.1c-225.16,0-450.32,0.02-675.48-0.02
		c-27.86-0.01-51.63,9.34-69.94,30.63c-41.65,48.43-19.42,124.62,43.77,141.37c8.73,2.32,18.09,3.22,27.15,3.23
		c225.66,0.17,451.32,0.15,676.98,0.08c6.77,0,12.62,1.08,15.95,7.76C937.59,928.92,931.99,939.15,922.49,940.09z M664.24,797.58
		c0.49,6.59,0.12,13.24,0.12,20.4c2.6,0,4.55,0,6.5,0c76.83,0,153.65,0,230.48,0c6.48,0,6.49,0.01,6.49,6.56
		c0.01,18.33,0.01,36.66,0,55c0,6.58-0.01,6.58-6.47,6.58c-86.33,0-172.65,0-258.98,0c-134.82,0-269.64,0.02-404.46-0.02
		c-26.99-0.01-46.79-12.18-58.01-36.68c-17.9-39.08,11.12-84.54,54.09-85.46c2.83-0.06,5.67-0.05,8.5-0.05
		c218.65,0,437.29,0,655.94,0c9.39,0,9.39,0,9.39,9.66c0,5.78,0,11.56,0,17.86c-2.92,0-5.06,0-7.19,0
		c-76.66,0-153.32,0.05-229.98-0.11C665.7,791.3,663.86,792.35,664.24,797.58z"/>
	<path class="st1" d="M232.01,858.26c125.93,0,251.59,0,377.39,0c0-8.87,0-17.4,0-25.9c-125.99,0-251.53,0-377.39,0
		C232.01,841.1,232.01,849.51,232.01,858.26z"/>
</g>
</svg>
