<?xml version="1.0" encoding="utf-8"?>
<!-- Generator: Adobe Illustrator 26.2.1, SVG Export Plug-In . SVG Version: 6.00 Build 0)  -->
<svg version="1.1" id="Capa_1" xmlns="http://www.w3.org/2000/svg" xmlns:xlink="http://www.w3.org/1999/xlink" x="0px" y="0px"
	 viewBox="0 0 1080 1080" style="enable-background:new 0 0 1080 1080;" xml:space="preserve">
<style type="text/css">
	.st0{enable-background:new    ;}
	.st1{fill:#FFFFFF;}
</style>
<g class="st0">
	<path class="st1" d="M961.89,340.33c-12.4-45.22-39.01-81.89-76.72-109.85c-48.47-35.93-102.64-50.01-162.61-40.34
		c-2.14,0.35-5.2-0.84-6.86-2.36c-8.22-7.53-15.76-15.83-24.18-23.11c-35.66-30.86-77.29-48.53-123.86-54.61
		c-30.27-3.95-60.16-1.2-89.6,6.75c-23.5,6.35-45.36,16.29-65.8,29.49c-17.75,11.47-33.65,25.09-47.66,40.87
		c-2.69,3.03-5.32,3.81-9.2,2.94c-5.02-1.13-10.17-1.89-15.3-2.3c-30.13-2.38-59.47,1.42-88.01,11.49
		c-37.69,13.3-69.32,35.45-94.66,66.17c-24.97,30.27-40.66,64.93-46.62,103.96c-5.5,36-2.67,71.21,9.73,105.34
		c18.47,50.83,51.34,89.82,98.76,116.12c5.22,2.9,7.02,5.99,7,11.97c-0.28,95.18-0.25,190.36-0.37,285.55
		c-0.03,23.6,7.32,44.29,24.39,60.8c16.49,15.95,36.74,22.78,59.54,22.77c76.5-0.05,153.01-0.02,229.51-0.02
		c75.34,0,150.68-0.04,226.01,0.04c11.91,0.01,23.58-1.05,34.88-5.05c17.61-6.23,31.32-17.35,41.21-33.12
		c8.95-14.26,12.1-30.03,12.09-46.71c-0.07-95.18,0.01-190.37-0.16-285.55c-0.01-5.26,1.95-7.74,6.18-10.48
		c12.69-8.22,26.07-15.88,37.14-26C963.99,503.58,985.95,428.09,961.89,340.33z M814.96,888.63c-0.03,27.02-17.43,44.61-44.31,44.61
		c-153.84,0.03-307.68,0.03-461.53,0c-27.27,0-44.56-17.44-44.59-44.82c-0.02-22.34,0.03-44.67,0.05-67.01
		c0.01-6.57,0.01-6.59,6.56-6.59c89.67,0,179.34,0,269.01,0c89.34,0,178.68,0,268.01,0c6.79,0,6.79,0.01,6.79,6.8
		C814.97,843.96,814.99,866.3,814.96,888.63z M832.11,562.01c-6.84,3.31-13.82,6.37-16,14.56c-0.8,3-1.1,6.22-1.1,9.34
		c-0.06,61.01-0.05,122.01-0.05,183.02c0,7.22,0,7.23-6.99,7.23c-178.67,0-357.33,0-536,0c-7.35,0-7.35-0.01-7.34-7.44
		c0.06-60.51-0.02-121.01,0.32-181.52c0.07-11.62-4.3-18.92-14.89-23.91c-48.1-22.69-80.26-59.61-95.99-110.42
		c-7.95-25.68-9.44-51.97-4.91-78.58c8.38-49.34,33.31-88.31,73.93-117.11c22.61-16.03,47.85-26.26,75.54-29.51
		c11.82-1.39,23.78-1.68,37.16-2.57c-1.39,3.36-1.9,5.02-2.72,6.51c-18.54,33.99-27.92,70.38-28.62,109.04
		c-0.16,8.83,2.66,16.22,11.02,20.19c7.24,3.43,14.27,2.42,20.6-2.69c5.43-4.38,6.48-10.57,7.11-16.96
		c1.09-11.09,1.56-22.29,3.45-33.25c5.23-30.39,17.57-57.81,36.18-82.4c25.64-33.88,58.84-57.35,99.29-69.85
		c36.48-11.28,73.55-12.02,110.37-1.25c60.26,17.62,102.93,55.67,128.31,112.9c9.38,21.16,14.23,43.58,15.15,66.83
		c0.23,5.92,0.63,12.2,2.77,17.59c3.52,8.87,12.85,12.63,21.94,10.29c9.03-2.32,14.43-10.16,14.29-20.86
		c-0.45-33.61-7.55-65.71-21.86-96.16c-2.69-5.72-5.6-11.33-8.38-17.01c-0.12-0.25,0.04-0.63,0.13-1.69c9.64,0,19.18-0.8,28.53,0.15
		c26.87,2.75,52.01,11.08,75.01,25.47c35.62,22.28,60.59,53.18,74.52,92.8C952.6,429.32,913.56,522.68,832.11,562.01z"/>
	<path class="st1" d="M757.2,501.39c-7.91-0.78-19.15,5.11-20.25,16.63c-0.49,5.12-1.29,10.25-2.54,15.23
		c-3.97,15.8-10.84,30.47-19.5,44.12c-9.98,15.73-20.75,30.97-31.39,46.28c-4.28,6.16-7.15,12.54-4.89,20.04
		c2.19,7.26,7.15,11.74,14.77,13.27c8.39,1.68,14.6-1.69,19.62-8c16.54-20.77,31.42-42.68,43.38-66.39
		c9.01-17.86,16.59-36.34,18.2-56.66c0.09-1.16,0.23-2.32,0.27-3.49C775.24,511.08,767.97,502.45,757.2,501.39z"/>
	<path class="st1" d="M356.55,562.86c-6.4-12.64-12.04-25.58-13.23-40.03c-0.31-3.74-1.11-7.71-2.77-11.03
		c-4.34-8.62-13.26-12.17-22.33-9.56c-8.66,2.49-14.04,10.62-13.73,20.28c0.46,14.57,4.8,28.22,10.11,41.52
		c7.67,19.24,17.88,37.21,29.56,54.29c7.42,10.86,15.26,21.45,23.37,31.81c5.64,7.2,14,9.07,22.02,5.97
		c7.05-2.72,12.2-10.17,12.06-17.44c0.44-0.23,0.88-0.46,1.32-0.68c-2.57-5.06-4.47-10.62-7.83-15.08
		C380.73,603.83,367.34,584.17,356.55,562.86z"/>
	<path class="st1" d="M558.22,516.97c-2.17-13.18-17.15-19.78-28.48-12.74c-7.63,4.74-9.39,12.06-9.4,20.2
		c-0.03,35.81-0.04,71.61,0.02,107.41c0.01,3.47,0.35,6.98,0.9,10.41c1.96,12.15,16.88,18.93,27.55,12.79
		c7.94-4.57,10.2-11.79,10.2-20.23c0.02-18.49,0.01-36.97,0.01-55.46c0-17.82,0.04-35.64-0.03-53.46
		C558.99,522.91,558.71,519.9,558.22,516.97z"/>
</g>
</svg>
