<?xml version="1.0" encoding="utf-8"?>
<!-- Generator: Adobe Illustrator 26.2.1, SVG Export Plug-In . SVG Version: 6.00 Build 0)  -->
<svg version="1.1" id="Capa_1" xmlns="http://www.w3.org/2000/svg" xmlns:xlink="http://www.w3.org/1999/xlink" x="0px" y="0px"
	 viewBox="0 0 1080 1080" style="enable-background:new 0 0 1080 1080;" xml:space="preserve">
<style type="text/css">
	.st0{enable-background:new    ;}
	.st1{fill:#450979;}
</style>
<g class="st0">
	<path class="st1" d="M956.38,935.53c-6.03-1.33-6.34-4.53-6.34-9.52c0.1-225.83,0.09-451.66,0.09-677.49
		c0-13.03-3.07-17.33-15.3-21.96c-41.87-15.87-83.72-31.8-125.58-47.69c-56.81-21.55-113.6-43.14-170.49-64.48
		c-3.11-1.17-7.33-1.06-10.52,0c-8.39,2.78-11.27,9.45-11.26,18c0.09,56.83,0.05,113.67,0.04,170.5c0,7.11,0,7.12-6.97,7.12
		c-102.34,0-204.68,0-307.02,0c-15.21,0-21.21,6.01-21.21,21.24c-0.01,39.17,0,78.33,0,117.5c0,14.67,0,29.33,0,44
		c0,7.41,0,7.41-7.66,7.42c-3.5,0-7,0-10.5,0c-38,0-76,0.01-114.01,0c-7.26,0-13.92,1.82-17.19,8.8c-1.75,3.75-2.36,8.34-2.36,12.55
		c-0.12,135.33-0.11,270.66-0.01,405.99c0,4.27-0.82,6.42-5.4,7.66c-10.2,2.77-14.31,14.96-8.47,23.75
		c4.12,6.2,10.22,7.91,17.31,7.91c135.34-0.05,270.68-0.04,406.02-0.04c135.17,0,270.35,0,405.52,0c1.83,0,3.68,0.08,5.5-0.07
		c8.38-0.68,15.21-7.12,16.2-15.18C967.52,945.38,962.82,936.95,956.38,935.53z M503.6,926.88c0,7,0,7.01-7.07,7.01
		c-109,0-218,0-327,0c-6.69,0-6.69,0-6.69-6.89c0-64.66,0-129.33,0-193.99c0-64.5,0-128.99,0-193.49c0-6.48,0.01-6.5,6.58-6.5
		c109.17,0,218.34,0,327.5,0c6.67,0,6.67,0.01,6.67,6.88C503.6,668.9,503.6,797.89,503.6,926.88z M577.02,532.97
		c12.16,0.19,24.33,0.05,36.5,0.05c13,0,26,0.09,39-0.05c3.39-0.04,4.69,0.95,4.66,4.54c-0.15,17.16-0.18,34.33,0.02,51.49
		c0.05,3.98-1.58,4.69-5.04,4.67c-24.67-0.1-49.33-0.09-74-0.03c-10.46,0.02-16.53,4.42-18.6,13.15c-1.8,7.63,2.7,16.01,10.2,18.25
		c3.14,0.94,6.54,1.36,9.83,1.37c24,0.11,48,0.16,72-0.03c4.41-0.04,5.69,1.26,5.62,5.66c-0.24,16.5-0.25,33,0.01,49.49
		c0.07,4.52-1.41,5.59-5.71,5.56c-24.5-0.19-49-0.12-73.5-0.07c-9.15,0.02-15.66,4.06-17.89,10.89
		c-3.8,11.65,3.94,21.69,17.13,21.88c12.5,0.18,25,0.04,37.5,0.04s25,0.11,37.5-0.06c3.61-0.05,4.99,0.94,4.95,4.78
		c-0.18,17-0.21,34,0.01,50.99c0.05,4.24-1.7,4.9-5.34,4.89c-24.67-0.11-49.33-0.1-74-0.03c-10.22,0.03-16.37,4.66-18.37,13.48
		c-1.72,7.6,2.99,15.92,10.55,18.04c3,0.84,6.22,1.24,9.35,1.26c24,0.1,48,0.17,72-0.05c4.68-0.04,5.84,1.43,5.82,5.97
		c-0.17,36.33-0.17,72.66,0,108.99c0.02,4.57-1.2,5.94-5.86,5.92c-36.33-0.18-72.67-0.2-109,0.01c-5,0.03-6.03-1.62-6.02-6.28
		c0.14-67.99,0.09-135.99,0.09-203.98c0-67.49,0.04-134.99-0.1-202.48c-0.01-4.21-0.7-8.79-2.47-12.53
		c-3.22-6.78-9.76-8.55-16.82-8.55c-31-0.01-62-0.01-93-0.01c-34.5,0-69-0.07-103.5,0.09c-4.45,0.02-5.99-1.04-5.98-5.8
		c0.18-48.66,0.16-97.32,0.02-145.98c-0.01-4.3,1.05-5.73,5.55-5.72c110.5,0.12,221,0.12,331.5,0c4.47,0,5.64,1.34,5.58,5.69
		c-0.23,17.16-0.1,34.33-0.1,51.49c0,6.86,0,6.87-6.71,6.87c-70.33,0-140.67-0.04-211,0.1c-4.05,0.01-8.38,0.75-12.07,2.34
		c-5.78,2.5-9.18,9.46-8.48,15.2c0.89,7.33,5.17,12.52,12.14,14.18c2.88,0.69,5.92,0.97,8.88,0.97
		c70.17,0.05,140.33,0.04,210.5,0.04c6.73,0,6.73,0.01,6.74,6.85c0,15.83-0.25,31.67,0.14,47.49c0.13,5.33-1.68,6.33-6.54,6.28
		c-24.33-0.22-48.67-0.14-73-0.08c-9,0.02-15.53,4.28-17.67,11.19C556.48,522.9,564.11,532.77,577.02,532.97z M917.38,928.27
		c0,4.3-1.04,5.86-5.56,5.72c-10.16-0.32-20.33-0.21-30.5-0.04c-3.47,0.06-4.96-1.12-4.56-4.61c0.15-1.32,0.02-2.66,0.02-4
		c0-173.51,0.03-347.02-0.15-520.53c-0.01-4.91-1.41-10.31-3.76-14.59c-2.92-5.3-8.66-7.12-14.74-6.2
		c-6.66,1.01-11.42,4.69-13.13,11.36c-0.81,3.18-1.02,6.58-1.02,9.88c-0.05,172.84-0.04,345.69-0.04,518.53c0,1.33-0.16,2.69,0.03,4
		c0.69,4.75-1.11,6.31-6.03,6.22c-16.16-0.3-32.34-0.28-48.5-0.01c-4.72,0.08-6.26-1.14-6.24-6.07c0.19-39.5,0.11-79,0.11-118.51
		c0-159.01,0-318.02-0.03-477.03c0-3.14-0.16-6.36-0.82-9.41c-1.63-7.49-7.9-12.54-15.29-12.74c-7.15-0.19-13.93,4.91-15.69,12.25
		c-0.76,3.19-0.99,6.58-0.99,9.88c-0.04,198.01-0.04,396.02-0.04,594.03c0,7.49,0,7.49-7.6,7.49c-16,0-32-0.08-48.01,0.06
		c-3.57,0.03-5.4-0.89-4.93-4.75c0.18-1.48,0.03-3,0.03-4.5c0-197.68,0.01-395.36-0.06-593.03c0-3.77-0.3-7.79-1.58-11.27
		c-2.68-7.26-8.81-10.11-16.18-10.34c-6-0.19-12-0.18-18,0c-3.29,0.1-4.32-1.16-4.31-4.38c0.07-49.34,0.05-98.67,0.06-148.01
		c0-0.96,0.22-1.93,0.48-4.01c9.07,3.4,17.44,6.5,25.79,9.66c78.76,29.89,157.5,59.81,236.29,89.62c3.7,1.4,4.96,3.28,4.96,7.28
		C917.28,482.91,917.28,705.59,917.38,928.27z"/>
	<path class="st1" d="M860.21,310.22c-8.62,0.05-16.31,7.91-16.13,16.48c0.18,8.46,7.66,15.93,16.08,16.05
		c8.48,0.12,16.45-7.74,16.45-16.25C876.61,317.96,868.77,310.17,860.21,310.22z"/>
	<path class="st1" d="M309.64,761.99c-0.09-12.27-6.53-18.86-18.86-18.93c-24.99-0.13-49.98-0.12-74.96-0.01
		c-12.65,0.06-19.04,6.54-19.07,19.19c-0.07,24.65-0.06,49.31,0,73.96c0.03,12.91,6.43,19.41,19.33,19.47
		c24.65,0.11,49.31,0.1,73.96,0c13.21-0.05,19.56-6.53,19.61-19.73c0.04-12.16,0.01-24.32,0.01-36.48
		C309.66,786.98,309.73,774.48,309.64,761.99z M272.19,823.14c-12.65-0.14-25.31-0.13-37.96-0.01c-3.42,0.03-4.73-1.18-4.69-4.65
		c0.13-12.82,0.11-25.64,0.01-38.46c-0.02-3.21,1.2-4.43,4.41-4.41c12.82,0.1,25.64,0.1,38.46-0.01c3.23-0.03,4.48,1.2,4.42,4.4
		c-0.12,6.49-0.04,12.99-0.04,19.48c0,6.33-0.11,12.66,0.05,18.98C276.93,821.89,275.67,823.18,272.19,823.14z"/>
	<path class="st1" d="M450.13,743.05c-24.65-0.08-49.3-0.08-73.96,0.01c-12.95,0.05-19.27,6.49-19.32,19.44
		c-0.06,12.16-0.01,24.32-0.01,36.48c0,12.33-0.03,24.65,0.01,36.97c0.05,13.25,6.35,19.7,19.55,19.74
		c24.48,0.08,48.97,0.08,73.46,0c13.54-0.04,19.84-6.44,19.86-19.97c0.03-24.32,0.04-48.63,0-72.95
		C469.69,749.52,463.35,743.09,450.13,743.05z M436.95,819c0.02,2.99-1.2,4.13-4.17,4.11c-12.99-0.08-25.99-0.08-38.98,0
		c-3,0.02-4.17-1.19-4.12-4.16c0.11-6.49,0.03-12.99,0.03-19.49c0-6.5,0.1-13-0.04-19.49c-0.07-3.25,1.24-4.4,4.43-4.37
		c12.83,0.1,25.66,0.11,38.48-0.01c3.26-0.03,4.41,1.23,4.39,4.42C436.86,793.01,436.88,806.01,436.95,819z"/>
	<path class="st1" d="M289.99,582.98c-12.32-0.07-24.65-0.01-36.98-0.01c-11.99,0-23.98,0-35.98,0c-0.33,0-0.67,0-1,0
		c-12.98,0.19-19.27,6.45-19.3,19.46c-0.06,24.48-0.05,48.97,0,73.45c0.03,13.04,6.26,19.57,19.13,19.64
		c24.82,0.14,49.63,0.13,74.45,0.01c12.91-0.06,19.3-6.61,19.32-19.48c0.05-24.48,0.04-48.97,0-73.45
		C309.63,589.38,303.29,583.05,289.99,582.98z M276.85,619.98c-0.18,6.48-0.05,12.97-0.05,19.45c0,6.32-0.12,12.64,0.05,18.95
		c0.09,3.47-1.27,4.66-4.7,4.62c-12.64-0.13-25.27-0.13-37.91-0.01c-3.39,0.03-4.75-1.13-4.71-4.62c0.13-12.8,0.14-25.6-0.01-38.4
		c-0.04-3.54,1.31-4.58,4.71-4.54c12.63,0.15,25.27,0.16,37.91-0.01C275.58,615.4,276.95,616.47,276.85,619.98z"/>
	<path class="st1" d="M450.22,582.98c-12.32-0.08-24.65-0.02-36.97-0.02c-12.16,0-24.31-0.04-36.47,0.01
		c-13.69,0.06-19.91,6.23-19.93,19.81c-0.04,24.31-0.04,48.63,0,72.94c0.02,13.31,6.26,19.76,19.46,19.82
		c24.65,0.11,49.3,0.12,73.94,0c13.19-0.06,19.45-6.56,19.47-19.83c0.04-24.31,0.04-48.63,0-72.94
		C469.69,589.41,463.46,583.07,450.22,582.98z M436.92,639.35c0,6.49-0.07,12.98,0.03,19.46c0.04,2.94-1.08,4.19-4.11,4.17
		c-12.98-0.08-25.95-0.08-38.93,0c-2.89,0.02-4.26-0.95-4.25-4.02c0.08-13.14,0.08-26.28-0.01-39.42c-0.02-3,1.09-4.1,4.11-4.08
		c12.98,0.1,25.95,0.13,38.93-0.02c3.4-0.04,4.32,1.36,4.26,4.45C436.83,626.38,436.92,632.87,436.92,639.35z"/>
	<path class="st1" d="M373.24,406.97c-8.65-0.03-16.33,7.71-16.24,16.36c0.09,8.72,7.9,16.39,16.45,16.17
		c8.7-0.23,16.34-8.14,16.06-16.63C389.24,414.39,381.67,407,373.24,406.97z"/>
</g>
</svg>
