<?xml version="1.0" encoding="utf-8"?>
<!-- Generator: Adobe Illustrator 26.2.1, SVG Export Plug-In . SVG Version: 6.00 Build 0)  -->
<svg version="1.1" id="Capa_1" xmlns="http://www.w3.org/2000/svg" xmlns:xlink="http://www.w3.org/1999/xlink" x="0px" y="0px"
	 viewBox="0 0 1080 1080" style="enable-background:new 0 0 1080 1080;" xml:space="preserve">
<style type="text/css">
	.st0{enable-background:new    ;}
	.st1{fill:#FFFFFF;}
</style>
<g class="st0">
	<path class="st1" d="M781.04,705.08c-8.73-7.93-17.11-16.39-24.73-25.39c-28.77-34.01-52.27-71.39-70.51-112.09
		c-7.43-16.58-15.63-32.86-27.62-46.7c-21.75-25.09-48.55-42.22-81.02-50.17c-30.47-7.46-60.43-5.95-89.93,4.62
		c-23.47,8.41-43.59,21.84-60.66,40.05c-12.82,13.67-22.21,29.47-29.91,46.35c-25.32,55.52-58.58,105.22-102.01,148.61
		c-46.77,46.73-58.66,103.63-35.89,165.2c21.54,58.26,67.31,89.62,127.21,100.98c25.24,4.79,50.45,2.18,75.25-4.28
		c27.27-7.1,55.05-9.69,83.17-9.5c29.69,0.2,58.49,6.14,87.37,12.4c48.64,10.54,93.62,0.94,134.4-27.52
		c22.42-15.64,39.62-35.88,51.39-60.68c9.88-20.83,14.21-42.86,15.57-65.83c-1.46-11.72-1.93-23.67-4.56-35.12
		C821.24,754.19,805.38,727.16,781.04,705.08z M793.91,845.38c-10.39,47.24-40.83,76.46-85.58,91.85
		c-26.7,9.18-53.65,8.11-80.67,0.92c-31.77-8.45-64.18-11.12-97.01-10.72c-32.24,0.39-63.28,7.97-94.74,13.59
		c-42.88,7.66-81.37-3.84-113.73-33.25c-28.94-26.31-40.92-59.86-37.78-98.44c2.26-27.74,13.04-52.5,33.24-71.92
		c29.14-28.01,54.92-58.7,75.47-93.4c13.63-23.01,25.49-47.09,37.47-71.03c9-18.01,20.17-33.95,36.25-46.35
		c21.63-16.68,46.06-24.85,77.17-25.1c39.96,1.35,74.31,20.09,97.46,57.44c8.46,13.64,14.14,28.98,21.43,43.37
		c22.65,44.7,50.58,85.7,85.65,121.67c8.58,8.8,18.19,16.85,25.43,26.65C794.9,779,801.46,811.04,793.91,845.38z"/>
	<path class="st1" d="M668.41,427.3c25.92,2.52,47.78-7.42,66.53-24.28c33.24-29.88,48.68-68.75,54.24-112.11
		c2.84-22.15,1.58-44.23-3.47-66.03c-6.31-27.27-17.29-52.22-38.13-71.64c-22.48-20.95-48.76-27.82-78.48-18.75
		c-21.3,6.5-37.86,19.99-51.51,37.12c-27.72,34.76-39.09,75.09-39.99,117.84c0.62,35.41,7.67,67.94,27.1,96.81
		C619.98,408.95,640.27,424.56,668.41,427.3z M613.58,279.42c-0.06-17.11,6.25-42,18.54-65.13c9.98-18.78,22.95-35.27,43.12-44.27
		c16.98-7.58,35.06-3.77,48.24,9.52c13.9,14.02,21.85,31.1,26.58,50.04c4.41,17.65,5.73,35.44,3.89,53.5
		c-3.58,35.18-15.55,66.78-41.2,91.89c-10.33,10.11-22.5,17.71-38.13,17.12c-11.46-0.43-20.88-5.06-29.03-12.73
		c-10.65-10.02-17.75-22.28-22.87-35.88C616.08,325.79,613.37,307.48,613.58,279.42z"/>
	<path class="st1" d="M353.46,409.44c14.26,10.44,30.25,17,48.04,17.71c29.11,1.16,51.21-12.52,68.51-34.61
		c18.92-24.17,28.03-52.4,30.85-82.6c2.93-31.43-0.78-62.2-12.35-91.76c-11.66-29.77-28.55-55.72-55.79-73.62
		c-20.49-13.46-42.87-18.08-66.74-11.37c-22.04,6.19-38.16,20.62-50.61,39.31c-19.1,28.69-26.01,60.85-26.28,94.8
		c-0.15,19.3,2.69,38.18,8,56.68C306.95,358.35,324.13,387.97,353.46,409.44z M325.94,247.58c2.67-22.14,8.89-43.11,23.14-60.77
		c12.08-14.96,26.87-24.4,47.34-19.85c12.21,2.71,21.89,9.87,30.26,18.52c20.82,21.51,32.12,47.84,36.9,77.08
		c1.44,8.84,1.91,17.83,2.59,24.48c-0.64,31.14-5.64,58.68-23.39,82.41c-14.11,18.86-33.31,28.12-56.19,18.52
		c-11.62-4.87-20.93-12.96-28.8-22.62c-16.44-20.2-26.16-43.44-30.51-69.03C324.52,280.13,323.97,263.86,325.94,247.58z"/>
	<path class="st1" d="M287.46,620c17.03-23.16,22.46-49.78,21.04-77.95c-1.68-33.27-12.71-63.5-31.71-90.7
		c-21.91-31.36-50.12-54.49-88.45-62.18c-35.65-7.16-66.01,3.07-89.1,31.71c-17.17,21.31-22.55,46.64-23.22,76.08
		c0.59,5.77,0.92,14.31,2.4,22.64c5.56,31.27,18.34,59.36,38.63,83.84c20.4,24.61,45.32,42.4,76.88,50.06
		C229.58,662.13,265.77,649.5,287.46,620z M261.68,594.2c-8.79,14.68-21.97,25.74-44.38,26c-13.14,0.26-25.4-3.34-36.74-9.59
		c-26.85-14.8-45.18-37.26-57.23-65.14c-9.01-20.85-13.39-42.51-10.45-65.22c2.57-19.84,9.91-37.42,27.07-49.14
		c15.9-10.85,33.38-10.64,50.78-4.58c25.88,9.01,44.77,26.75,59.5,49.45c10.19,15.71,17.41,32.7,20.73,50.97
		C275.16,550.18,274.21,573.27,261.68,594.2z"/>
	<path class="st1" d="M995.68,449.94c-12.48-35.18-40.74-60.1-79.35-62.62c-23.04-1.5-44.15,5.05-63.77,16.64
		c-29.94,17.68-51.32,43.21-65.73,74.5c-16.77,36.41-22.36,74.1-9.75,113.1c6.99,21.61,19.52,39.36,39.11,51.33
		c26.32,16.09,54.24,16.8,82.63,6.62c28.64-10.27,51.05-29.04,68.94-53.3c22.25-30.18,34.22-64.04,35.23-99.87
		C1002.87,479.3,1000.79,464.35,995.68,449.94z M922.51,593.38c-11.37,10.92-24.29,19.19-39.41,23.73
		c-26.91,8.08-53.22,1.7-67.66-26.65c-8.3-16.3-10.65-33.56-8.72-51.84c3.37-32.01,16.45-59.46,37.89-82.92
		c13.32-14.58,29.29-25.87,48.8-30.74c33.64-8.41,60.75,8.44,69.9,41.6c2.33,8.43,3.31,17.24,4.27,22.46
		C965.84,532.21,951.17,565.87,922.51,593.38z"/>
	<path class="st1" d="M672.21,689.03c-4.27-6.14-8.63-12.23-13.25-18.11c-3.15-4.01-7.65-5.71-12.8-5.61
		c-6.7,0.08-11.91,3.03-15.25,8.73c-3.95,6.75-2.87,13.5,1.3,19.74c16.75,25.08,34.78,49.2,55.41,71.26
		c4.19,4.48,8.55,8.91,13.36,12.68c5.47,4.29,11.81,4.28,17.88,0.99c6.23-3.38,9.21-8.79,9.19-15.96
		c-0.02-6.22-3.46-10.6-7.46-14.71C702.8,729.73,686.79,709.98,672.21,689.03z"/>
	<path class="st1" d="M612.24,601.32c-9.59-0.21-18.08,8.14-17.98,17.67c0.11,9.49,8.13,17.31,17.75,17.31
		c9.59-0.01,17.64-7.88,17.73-17.34C629.84,609.62,621.82,601.54,612.24,601.32z"/>
</g>
</svg>
