<?xml version="1.0" encoding="utf-8"?>
<!-- Generator: Adobe Illustrator 26.2.1, SVG Export Plug-In . SVG Version: 6.00 Build 0)  -->
<svg version="1.1" id="Capa_1" xmlns="http://www.w3.org/2000/svg" xmlns:xlink="http://www.w3.org/1999/xlink" x="0px" y="0px"
	 viewBox="0 0 1080 1080" style="enable-background:new 0 0 1080 1080;" xml:space="preserve">
<style type="text/css">
	.st0{fill:#450979;enable-background:new    ;}
</style>
<path class="st0" d="M805.79,979.85c0-2.86,0-5.15,0-7.44c0-87.51,0-175.03,0-262.54c0-1.83,0.07-3.67-0.06-5.5
	c-0.43-6.15-4.12-10.96-9.32-12.24c-6.06-1.5-10.97,0.37-14.39,6.21c-8.33,14.22-16.38,28.6-24.63,42.87
	c-18.3,31.66-32.18,65.31-44.99,99.47c-12.5,33.33-28.87,64.75-48.45,94.44c-18.87,28.61-45.75,44.22-79.89,44.51
	c-76.93,0.64-153.87,0.75-230.8-0.04c-40.59-0.41-74-17.64-99.15-49.75c-21.48-27.43-9.43-70.28,29.09-79.29
	c30.74-7.2,60.29-17.72,88.52-31.91c1.29-0.65,2.55-1.38,3.76-3.18c-1.81-0.14-3.62-0.41-5.43-0.41
	c-68.77-0.02-137.55,0.02-206.32-0.03c-17.38-0.01-31.09-6.83-39.09-22.8c-2.1-4.19-2.8-9.13-3.79-13.8
	c-0.48-2.24-0.15-4.65-0.15-6.98c0-112.85,0.26-225.7-0.14-338.55c-0.15-41.27,7.23-80.88,23.14-118.76
	c12.57-29.95,29.66-57.27,51.23-81.74c23.37-26.52,50.36-48.48,81.21-65.57c23.83-13.2,49.06-23,75.63-29.25
	c33.68-7.92,67.76-10.58,102.13-6.57c56.11,6.55,106.92,26.63,151.64,61.46c46.92,36.54,80.36,82.87,100.26,139
	c11.82,33.33,16.92,67.74,16.96,102.99c0.04,40.84,0.01,81.68,0.01,122.52c0,1.64,0,3.28,0,4.92c0.35,0.19,0.69,0.38,1.04,0.57
	c1.02-1.23,2.22-2.35,3.03-3.71c31.28-52.11,62.52-104.24,93.77-156.36c9.93-16.57,19.92-33.1,29.74-49.73
	c1.62-2.74,3.35-4.01,6.67-3.97c35.39,0.41,62.77,15,81.54,45.39c24.18,39.15,33.5,81.63,30.6,127.46
	c-2.08,32.8-12.67,62.73-26.73,91.84c-14.51,30.06-25.62,61.4-34.37,93.56c-13.99,51.4-20.63,103.82-20.71,157.07
	c-0.06,36.5-0.09,73.01,0.09,109.51c0.02,4.84-0.94,6.54-6.26,6.47C856.35,979.66,831.55,979.85,805.79,979.85z M652.13,902.08
	c-2.6,1.07-4.11,1.62-5.55,2.3c-42.77,19.86-87.74,31.82-134.78,33.33c-46.91,1.5-93.89,0.55-140.85,0.77
	c-3.15,0.01-4.03-1.21-3.95-4.13c0.15-5.5,0.35-11.02-0.05-16.49c-0.36-4.92,1.45-6.14,6.2-6.11c38.46,0.18,76.92,0.1,115.39,0.1
	c36.38,0,71.98-5.27,106.69-16.17c27.42-8.61,53.33-20.65,77.83-35.69c1.81-1.11,3.33-3.24,4.22-5.23
	c3.78-8.51,7.32-17.13,10.85-25.75c8.44-20.62,15.64-41.86,25.52-61.77c13.68-27.55,29.26-54.17,44.25-81.05
	c7.45-13.35,19.13-20.74,34.4-21.32c4.61-0.18,6.74-1.9,8.91-5.43c21.08-34.17,42.96-67.86,67.56-99.58
	c22.14-28.55,45.56-56.09,68.3-84.18c1.39-1.71,2.74-4.49,2.37-6.44c-3.97-21.12-11.6-40.86-22.72-59.31
	c-10.21-16.93-24.12-28.49-43.77-32.77c-3.93-0.86-5.87-0.2-7.97,3.32c-49.27,82.46-98.95,164.68-147.96,247.3
	c-27.62,46.56-57.7,91.06-95.64,130.04c-38.94,40-97.6,54.1-149.74,34.44c-5.17-1.95-9.13-1.91-12.86,2.21
	c-0.55,0.61-1.29,1.05-1.94,1.57c-31.1,25-65.03,45.37-102.18,59.76c-21.19,8.21-43.24,14.22-65.02,20.83
	c-13.33,4.04-20.83,14.09-18.83,26.52c1.13,7.02,3.07,8.71,10.02,8.71c17.65,0,35.3-0.05,52.95,0.09c1.63,0.01,4.64,1.21,4.67,1.96
	c0.34,8.06,0.21,16.14,0.21,24.84c-11.14,0-21.46,0-32.4,0c0.86,1.09,1.09,1.58,1.47,1.82c0.97,0.63,2.01,1.16,3.04,1.71
	c14.15,7.49,29.43,10.57,45.24,10.6c75.26,0.14,150.52,0.34,225.78-0.06C619.52,952.6,637.66,930.77,652.13,902.08z M421.3,431.29
	c71.27,0,142.55-0.04,213.82,0.09c4.85,0.01,6.63-1.39,5.94-6.27c-2.15-15.14-3.07-30.55-6.38-45.42
	c-9.02-40.53-28.82-75.61-58.49-104.43c-51.69-50.21-113.7-71.03-185.34-61.84c-36.57,4.69-69.53,18.63-99.23,40.4
	c-27.47,20.13-49.05,45.39-64.8,75.55c-15.49,29.67-23.94,61.24-24.66,94.82c-0.15,7.12-0.34,7.12,6.82,7.12
	C279.76,431.29,350.53,431.29,421.3,431.29z M696.06,585.84c-2.14,0.3-3.44,0.37-4.68,0.68c-61.16,15.28-122.31,30.61-183.49,45.82
	c-3.35,0.83-4.71,2.28-4.63,5.78c0.19,8,0.11,16,0.05,24c-0.19,25.5-17.06,42.78-42.51,43.02c-26.14,0.25-52.28,0.22-78.43,0.01
	c-25.56-0.2-42.78-17.67-43.02-43.25c-0.08-8-0.11-16,0.03-24c0.06-3.18-0.96-4.77-4.24-5.53c-10.85-2.53-21.63-5.39-32.44-8.09
	c-49.71-12.4-99.43-24.77-149.14-37.18c-6.75-1.69-6.75-1.75-6.75,5.01c0,59-0.01,118.01,0.03,177.02c0,2.48,0.23,5,0.66,7.44
	c1.06,6.09,5.06,10.04,11.22,11.04c2.61,0.42,5.3,0.51,7.95,0.52c82.92,0.02,165.84-0.03,248.77,0.14
	c5.17,0.01,9.18-1.25,13.13-4.49c9.52-7.82,19.38-15.22,28.94-22.99c2.44-1.99,4.31-2.28,7.11-0.76c4.23,2.29,8.65,4.32,13.16,5.99
	c42.3,15.7,81.36,9.78,115.86-19.39c18.72-15.83,34.11-35.09,49.14-54.44c19.46-25.05,35.64-52.25,51.75-79.49
	c0.66-1.12,1.45-2.41,1.47-3.63C696.13,601.58,696.06,594.11,696.06,585.84z M503.6,605.71c3.46-0.8,6.03-1.35,8.58-1.99
	c34.53-8.62,69.06-17.26,103.59-25.89c25.01-6.25,50.01-12.56,75.04-18.72c3.74-0.92,5.44-2.35,5.4-6.67
	c-0.22-29.66-0.2-59.33-0.02-88.99c0.03-4.5-1.45-5.59-5.74-5.59c-179.3,0.09-358.61,0.09-537.91,0c-4.28,0-5.83,1.17-5.81,5.63
	c0.16,29.66,0.15,59.33,0,88.99c-0.02,3.91,1.34,5.66,5.03,6.54c11.81,2.81,23.56,5.86,35.34,8.81
	c41.14,10.28,82.29,20.57,123.43,30.84c9.29,2.32,18.59,4.61,28.5,7.06c0.12-2.7,0.29-4.65,0.29-6.6c0.02-17.67,0.12-35.33-0.08-53
	c-0.04-3.95,1.12-5.11,5.07-5.1c51.44,0.12,102.89,0.12,154.33,0c3.85-0.01,4.77,1.32,4.74,4.92c-0.15,17.83-0.07,35.66-0.06,53.5
	C503.34,601.25,503.49,603.03,503.6,605.71z M421.25,155.63c-12.59,1.07-25.24,1.69-37.76,3.31c-27.07,3.51-52.96,11.29-77.66,22.96
	C255.7,205.59,216.08,241,187.15,288.36c-25.83,42.31-39,88.28-40.01,137.83c-0.08,4.09,1.31,5.34,5.13,5.14
	c4.15-0.21,8.32,0,12.48-0.06c11.91-0.15,9.98,1.53,10.5-10.04c1.33-29.93,7.39-58.79,19.17-86.27
	c17.84-41.61,44.96-75.99,81.48-102.89c35.39-26.07,74.97-41.49,118.51-46.32c37.76-4.19,74.7,0.13,110.52,13.17
	c44.45,16.18,81.23,42.97,110.48,80.1c24.54,31.15,40.6,66.33,47.89,105.28c2.53,13.52,3.24,27.42,4.24,41.19
	c0.33,4.64,1.81,6.1,6.25,5.87c5.65-0.29,11.33-0.28,16.97,0c4.24,0.21,5.61-1.39,5.19-5.52c-1.11-11.09-1.7-22.25-3.05-33.31
	c-3.2-26.3-10.73-51.42-21.84-75.42c-23.28-50.31-58.3-90.35-105.38-119.66C521.52,169.92,473.25,156.45,421.25,155.63z
	 M942.54,512.98c-0.41-0.09-0.82-0.19-1.23-0.28c-0.8,0.73-1.72,1.38-2.4,2.22c-11.56,14.21-23.3,28.28-34.6,42.7
	c-28.99,37.01-55.54,75.72-80.09,115.81c-0.92,1.5-1.49,4.55-0.64,5.58c7.7,9.41,8.97,20.37,8.95,31.96
	c-0.11,66.84-0.05,133.67-0.06,200.51c0,12.17,0.08,24.34-0.08,36.5c-0.05,3.68,1.24,5.12,4.92,4.99
	c5.32-0.19,10.65-0.04,15.98-0.05c7.34,0,7.27-0.01,7.35-7.36c0.45-41.32,0.29-82.66,1.58-123.96
	c1.26-40.44,8.96-80.07,19.21-119.12c8.71-33.2,20.15-65.49,34.84-96.57c11.04-23.36,21.75-46.83,24.78-72.9
	C941.83,526.38,942.06,519.67,942.54,512.98z M421.3,622.67c-16.64,0-33.29,0.07-49.93-0.06c-3.56-0.03-5.13,1.01-5.08,4.81
	c0.16,11.66-0.11,23.33,0.11,34.99c0.2,10.57,5.59,15.75,16.32,15.79c25.8,0.09,51.6,0.09,77.4,0c11-0.04,16.48-5.65,16.57-16.72
	c0.09-11-0.19-22,0.12-32.99c0.13-4.73-1.6-5.96-6.07-5.9C454.26,622.8,437.78,622.67,421.3,622.67z M421.3,596.03
	c16.81,0,33.62-0.07,50.43,0.05c3.57,0.03,5.16-1.04,5.03-4.84c-0.22-6.16-0.19-12.33-0.01-18.49c0.11-3.58-1.06-5.06-4.84-5.04
	c-33.62,0.1-67.25,0.09-100.87,0c-3.4-0.01-4.85,1.1-4.75,4.6c0.16,5.66,0.03,11.33,0.04,16.99c0.01,6.71,0.02,6.73,6.52,6.73
	C389.01,596.04,405.15,596.04,421.3,596.03z"/>
</svg>
