<?xml version="1.0" encoding="utf-8"?>
<!-- Generator: Adobe Illustrator 26.2.1, SVG Export Plug-In . SVG Version: 6.00 Build 0)  -->
<svg version="1.1" id="Capa_1" xmlns="http://www.w3.org/2000/svg" xmlns:xlink="http://www.w3.org/1999/xlink" x="0px" y="0px"
	 viewBox="0 0 1080 1080" style="enable-background:new 0 0 1080 1080;" xml:space="preserve">
<style type="text/css">
	.st0{enable-background:new    ;}
	.st1{fill:#450979;}
</style>
<g class="st0">
	<path class="st1" d="M1016.9,480.03c-9.75-24.03-24.03-44.69-43.12-62.23c-13.52-12.43-28.75-22.06-45.42-29.53
		c-3.71-1.66-5.65-4.04-6.21-8.17c-3.02-22.22-9.12-43.7-18.01-64.21c-20.76-47.91-52.38-87.1-95.83-116.41
		c-35.16-23.72-73.85-37.9-116.04-42.53c-29.78-3.27-59.15-1.23-88.3,5.71c-29.33,6.99-56.55,18.71-81.35,35.74
		c-10.68,7.34-20.67,15.71-30.78,23.84c-2.63,2.11-4.39,2.26-6.8-0.07c-2.75-2.65-5.79-5.01-8.74-7.47
		c-38.66-32.17-82.98-51.36-132.88-57.43c-44.95-5.47-88.48,0.56-130.15,18.16c-43.1,18.2-78.71,46.24-107.12,83.51
		c-19.4,25.45-33.65,53.54-43.1,83.94c-8.15,26.22-11.95,53.3-11.73,80.78c0.12,16.19,2.26,32.3,7.18,47.75
		c4.84,15.18,10.7,30.05,16.36,44.96c1.3,3.44,0.67,4.35-2.88,4.68c-3.59,0.34-7.4,0.84-10.58,2.38
		c-7.11,3.43-11.16,11.66-9.93,18.58c1.64,9.15,7.63,15.3,16.64,15.99c7.63,0.58,15.33,0.5,22.98,0.27c4.01-0.12,6.37,1.2,8.45,4.65
		c24.52,40.63,53.37,78.1,84.49,113.82c51.19,58.77,106.13,113.88,164.77,165.18c40.99,35.86,83.17,70.38,124.92,105.37
		c10.25,8.59,18.74,8.47,28.85,0.51c56.99-44.86,111.75-92.3,164.87-141.65c2.18-2.03,4.29-4.23,6.02-6.64
		c4.27-5.95,4.59-12.43,1.22-18.83c-3.56-6.77-9.39-10.14-17.12-10.02c-6.51,0.1-11.19,3.85-15.62,7.99
		c-48.11,44.97-98.07,87.8-149.29,129.17c-3.25,2.63-5.31,2.65-8.48-0.01c-18.39-15.4-37.08-30.46-55.43-45.91
		c-50.91-42.83-99.87-87.81-146.7-135.06C232,676.35,184.8,623.42,144.96,564.31c-1.04-1.54-1.85-3.23-3.39-5.95
		c3.17,0,5.1,0,7.02,0c53.67,0,107.34,0.02,161.01-0.01c11.91-0.01,18.59-4.7,21.64-15.31c10.37-36.13,20.64-72.29,31-108.42
		c0.38-1.34,1.39-2.5,2.48-4.39c0.82,1.55,1.21,2.09,1.39,2.68c11.05,35.58,22.04,71.17,33.12,106.73
		c19,60.97,38.06,121.92,57.09,182.88c2.99,9.59,9.92,15.25,18.73,15.26c8.63,0.01,15.57-5.32,18.55-14.77
		c7.25-23,14.3-46.06,21.47-69.08c9.15-29.38,18.4-58.72,27.44-88.13c1.28-4.17,3.26-5.69,7.74-5.65c25,0.22,50,0.13,75,0.08
		c2.82,0,5.7-0.05,8.46-0.59c10.13-1.96,16.57-12.33,13.99-22.23c-2.43-9.32-8.69-14.39-19.54-14.46
		c-32.17-0.21-64.34-0.2-96.5,0.01c-10.36,0.07-16.83,5.4-19.86,15.17c-10.41,33.51-20.78,67.03-31.2,100.54
		c-1.48,4.75-3.13,9.46-5.01,15.13c-1.34-1.71-2.04-2.25-2.26-2.93c-5.89-18.89-11.7-37.81-17.58-56.7
		c-9.19-29.54-18.42-59.06-27.64-88.59c-9.27-29.69-18.52-59.37-27.81-89.05c-6.26-20-12.41-40.03-18.93-59.95
		c-2.81-8.57-9.87-13.33-18.04-13.21c-8.31,0.12-15.43,5.54-17.95,14.14c-5.81,19.79-11.47,39.63-17.16,59.45
		c-9.32,32.45-18.78,64.86-27.79,97.4c-1.54,5.57-4.21,6.71-9.42,6.68c-34.67-0.2-69.34-0.1-104-0.1c-21,0-42-0.08-63,0.08
		c-3.85,0.03-6.41-0.97-7.63-4.77c-0.45-1.41-1.23-2.73-1.91-4.06c-10.8-21.15-19.47-43.15-23.47-66.59
		c-5.32-31.18-1-61.88,8.07-91.79c10.29-33.93,27.62-64.12,52.03-89.99c33.59-35.6,74.19-58.48,122.57-67.33
		c30.13-5.51,60.01-4.57,89.73,2.42c22.7,5.34,43.91,14.3,63.77,26.57c16.55,10.23,31.21,22.68,44.92,36.4
		c11.37,11.38,21.22,11.14,32.9-0.03c7.1-6.79,14.19-13.63,21.76-19.86c33.73-27.76,72.59-43.6,115.91-48.06
		c29.47-3.04,58.53-0.14,86.91,8.83c30.13,9.53,57.07,24.65,80.7,45.62c30.81,27.36,52.79,60.6,65.77,99.71
		c2.81,8.46,4.86,17.17,7.51,26.69c-4.4,0-7.38,0.25-10.3-0.04c-17.77-1.77-35.24-0.02-52.53,4.2
		c-25.03,6.11-47.53,17.42-67.08,34.1c-33.57,28.64-53.57,64.82-58.96,108.86c-4.39,35.91,2.04,69.94,19.93,101.14
		c27.43,47.85,68.72,76.48,123.61,84.56c32.51,4.79,63.87,0.23,93.49-13.95c49.36-23.63,80.62-62.46,93.11-115.6
		C1032.63,544.81,1029.85,511.94,1016.9,480.03z M861.09,671.86c-71.88-0.05-130.3-58.63-130.14-130.51
		c0.15-71.47,58.94-130.21,130.22-130.1c71.69,0.1,130.26,58.92,130.13,130.68C991.17,613.59,932.73,671.91,861.09,671.86z"/>
	<path class="st1" d="M711.97,717.99c-10.24,0.06-18.97,8.91-18.93,19.2c0.03,10.12,8.26,18.38,18.35,18.43
		c10.13,0.05,19.22-8.8,19.4-18.88C730.96,726.9,721.96,717.93,711.97,717.99z"/>
	<path class="st1" d="M928.16,522.91c-14.17-0.14-28.34-0.19-42.5,0.04c-4.33,0.07-5.84-1.17-5.76-5.64c0.24-14.5,0.17-29,0.06-43.5
		c-0.08-10.26-5.61-17.85-14.18-19.95c-12.41-3.03-23.24,5.83-23.46,19.57c-0.23,14.5-0.2,29,0.03,43.5
		c0.07,4.47-1.09,6.17-5.87,6.04c-11.99-0.32-24-0.2-36-0.06c-4.47,0.05-8.98,0.34-13.4,1c-7.18,1.08-11.66,5.77-13.47,12.44
		c-2.01,7.39-0.82,14.8,5.85,19.24c4.03,2.68,9.46,4.26,14.33,4.47c13.98,0.58,28,0.41,41.99,0.1c4.93-0.11,6.91,1.1,6.58,6.35
		c-0.43,6.81-0.11,13.66-0.1,20.49c0.01,7.67-0.17,15.34,0.04,23c0.4,14.19,11.24,22.51,24.55,19.05c7.69-2,13.04-9.89,13.1-19.73
		c0.1-14.67,0.13-29.34-0.04-44c-0.05-3.94,1.3-5.19,5.21-5.14c13.33,0.19,26.67,0.1,40,0.06c2.99-0.01,6.03,0.02,8.97-0.44
		c12.99-2,19.56-16.99,12.51-28.1C942.27,524.84,935.58,522.98,928.16,522.91z"/>
</g>
</svg>
