<?xml version="1.0" encoding="utf-8"?>
<!-- Generator: Adobe Illustrator 26.2.1, SVG Export Plug-In . SVG Version: 6.00 Build 0)  -->
<svg version="1.1" id="Capa_1" xmlns="http://www.w3.org/2000/svg" xmlns:xlink="http://www.w3.org/1999/xlink" x="0px" y="0px"
	 viewBox="0 0 1080 1080" style="enable-background:new 0 0 1080 1080;" xml:space="preserve">
<style type="text/css">
	.st0{enable-background:new    ;}
	.st1{fill:#FFFFFF;}
</style>
<g class="st0">
	<path class="st1" d="M913.68,808.32c-3.35-1.14-4.58-2.77-4.76-6.39c-1.4-28.76-23.4-51.98-52.08-54.77
		c-4.71-0.46-6.03-1.77-6.03-6.49c0.14-86.16,0.13-172.32,0.02-258.49c0-3.75,1.17-6.13,4.15-8.34
		c15.54-11.49,30.99-23.11,46.37-34.81c2.21-1.68,4.38-3.74,5.75-6.1c4.02-6.9,1.93-13.88-5.61-19.41
		c-39.91-29.24-79.84-58.46-119.83-87.6c-2.57-1.87-3.67-3.82-3.61-7.01c0.18-10.16,0.07-20.33,0.07-30.5
		c0-39.66,0.03-79.33-0.06-118.99c-0.01-3.39,0.56-5.29,4.37-6.35c6.56-1.82,10.16-6.93,10.2-13.81c0.13-19.16,0.18-38.33-0.02-57.5
		c-0.09-8.6-6.52-14.65-15.08-14.65c-48-0.04-96-0.04-144,0c-8.56,0.01-14.91,6.09-14.98,14.73c-0.17,19.16-0.14,38.33,0,57.5
		c0.05,6.88,3.66,11.87,10.25,13.78c3.41,0.99,4.37,2.48,4.32,5.87c-0.18,14-0.06,28-0.09,42c0,1.58-0.23,3.16-0.41,5.63
		c-1.93-1.27-3.15-2-4.28-2.83c-33.77-24.65-67.54-49.32-101.31-73.97c-7.9-5.77-13.37-5.8-20.94-0.28
		c-49.5,36.17-99.01,72.31-148.5,108.49c-75.31,55.05-150.61,110.12-225.91,165.19c-10.6,7.76-10.74,17.97-0.35,25.81
		c15.43,11.63,30.86,23.28,46.41,34.75c2.99,2.2,4.18,4.56,4.18,8.31c-0.1,86.33-0.11,172.66,0,258.99c0.01,4.19-1,5.64-5.44,6.01
		c-27.99,2.34-50.66,25.05-52.52,52.72c-0.34,5.05-1.44,7.9-6.71,9.14c-3.46,0.81-6.71,2.89-9.82,4.8
		c-21.82,13.34-32.09,39.6-25.37,64.62c6.73,25.06,29.92,42.41,57.01,42.41c251.51,0.02,503.01,0.02,754.52-0.05
		c4.61,0,9.3-0.59,13.82-1.55c25.06-5.35,43.71-27.11,45.27-52.54C954.28,840.54,938.48,816.79,913.68,808.32z M181.84,834
		c0,17.64-0.11,35.29,0.08,52.93c0.04,4.07-1.08,5.5-5.32,5.41c-12.65-0.26-25.3-0.04-37.95-0.12
		c-17.3-0.11-30.17-12.96-30.03-29.89c0.13-16.1,13.41-28.77,30.12-28.73c12.44,0.03,18.39-8.33,14.87-20.87
		c-3.43-12.23,0.19-24.01,10.44-31.39c3.67-2.64,8.26-4.12,12.6-5.66c3.68-1.31,5.32,0.17,5.28,4.4
		C181.73,798.05,181.84,816.03,181.84,834z M652.11,105.69c17.8,0.2,35.61,0.09,53.42,0.09c17.81,0,35.61,0.1,53.42-0.08
		c3.85-0.04,5.36,0.96,5.2,5.01c-0.29,6.98-0.16,13.98-0.05,20.96c0.05,2.78-0.95,3.78-3.78,3.78
		c-36.44-0.07-72.89-0.08-109.33,0.01c-3.2,0.01-3.96-1.29-3.91-4.16c0.13-6.82,0.23-13.65-0.03-20.46
		C646.9,106.96,648.07,105.64,652.11,105.69z M661.62,169.64c-0.04-4.2,0.89-5.81,5.48-5.77c25.64,0.22,51.29,0.17,76.93,0.03
		c3.94-0.02,5.54,0.84,5.53,5.2c-0.15,42.46-0.08,84.92-0.1,127.38c0,1.42-0.25,2.83-0.51,5.44c-13.36-9.73-25.72-18.72-38.07-27.73
		c-15.19-11.09-30.32-22.26-45.6-33.23c-2.74-1.96-3.69-4.01-3.66-7.38C661.79,212.27,661.8,190.95,661.62,169.64z M735.04,886.44
		c0.01,4.53-1.16,5.92-5.84,5.91c-54.5-0.16-109-0.17-163.49,0.01c-5.03,0.02-6-1.67-5.99-6.28c0.15-51.49,0.09-102.99,0.09-154.48
		c0-51.16,0-102.32,0-153.48c0-6.55,0.01-6.56,6.51-6.56c54.16,0,108.33,0.05,162.49-0.1c4.67-0.01,6.26,1.08,6.25,6.02
		C734.92,680.46,734.93,783.45,735.04,886.44z M822.27,884.8c0,7.45,0,7.45-7.63,7.45c-15,0-30,0-45,0c-1.79,0-3.58,0-6.08,0
		c0-3.07,0-5.52,0-7.98c0-107.83,0-215.65-0.01-323.48c0-9.57-2.95-14.71-10.09-16.97c-2.32-0.73-4.92-0.81-7.39-0.82
		c-65.83-0.04-131.67-0.04-197.5-0.03c-12.04,0-17.41,5.35-17.41,17.36c-0.01,107.83-0.01,215.65-0.01,323.48
		c0,1.67,0.46,3.54-0.15,4.94c-0.6,1.4-2.14,2.6-3.54,3.39c-0.88,0.5-2.28,0.1-3.45,0.1c-102.17,0-204.34,0-306.5,0
		c-2.12,0-4.24,0-6.8,0c-0.12-2.56-0.28-4.52-0.28-6.48c-0.01-134.32,0.01-268.65-0.1-402.97c0-4.16,1.41-6.7,4.68-9.07
		c99.22-72.04,198.39-144.13,297.5-216.32c2.96-2.16,4.81-2.17,7.78-0.01c66.21,48.3,132.51,96.49,198.8,144.69
		c32.07,23.32,64.08,46.71,96.3,69.81c4.94,3.54,7.04,7.14,7.03,13.43C822.22,618.48,822.27,751.64,822.27,884.8z M833.27,449.91
		c-39.96-29.18-79.99-58.26-120.01-87.36c-62.12-45.16-124.23-90.33-186.37-135.47c-8.23-5.98-12.97-5.84-21.29,0.21
		c-101.74,73.97-203.49,147.92-305.16,221.98c-3.11,2.27-5.12,2.4-8.17,0.01c-8.65-6.79-17.5-13.31-26.41-19.76
		c-3.3-2.39-3.11-3.86,0.13-6.22c92.47-67.44,184.89-134.96,277.31-202.47c23.01-16.8,46.04-33.57,68.94-50.52
		c3.03-2.24,5-2.47,8.18-0.13c71.22,52.19,142.53,104.26,213.81,156.35c43.85,32.04,87.69,64.09,131.53,96.15
		c1.42,1.04,2.73,2.23,4.72,3.87c-3.96,3.03-7.34,5.64-10.74,8.21c-6.65,5.01-13.4,9.91-19.95,15.05
		C837.44,451.65,835.78,451.75,833.27,449.91z M896.35,892.16c-13.66,0.25-27.33-0.04-40.99,0.15c-3.63,0.05-4.84-1.35-4.44-4.69
		c0.02-0.16,0-0.33,0-0.5c0-17.83,0-35.65,0-53.48c0-17.66-0.01-35.32,0.01-52.98c0.01-5.5,0.71-6.03,6.13-4.88
		c16.5,3.49,26.76,20.36,22.22,36.51c-3.82,13.58,2.01,21.21,16.28,21.3c15.65,0.1,28.52,12.93,28.72,28.65
		C924.48,878.33,912.03,891.87,896.35,892.16z"/>
	<path class="st1" d="M472.41,560.37c-0.01-12.03-5.37-17.39-17.37-17.4c-56.17-0.01-112.33-0.01-168.5,0
		c-12.03,0-17.38,5.35-17.38,17.38c-0.01,65.83-0.01,131.66,0,197.48c0,12.01,5.38,17.42,17.38,17.42
		c56.17,0.02,112.33,0.02,168.5,0c12.03,0,17.36-5.37,17.37-17.41c0.02-32.83,0.01-65.66,0.01-98.49
		C472.42,626.36,472.44,593.37,472.41,560.37z M389.56,571.5c16.49,0.11,32.98,0.15,49.47-0.02c3.71-0.04,4.96,1.08,4.89,4.82
		c-0.2,10.66-0.07,21.32-0.07,31.98c0,10.66-0.09,21.32,0.05,31.98c0.05,3.34-0.86,4.73-4.49,4.69
		c-16.65-0.16-33.31-0.14-49.97-0.02c-3.23,0.02-4.39-1.01-4.38-4.29c0.1-21.65,0.1-43.3,0-64.95
		C385.05,572.3,386.45,571.48,389.56,571.5z M297.75,575.97c-0.02-3.58,1.32-4.51,4.69-4.48c16.48,0.13,32.96,0.14,49.44,0
		c3.44-0.03,4.7,1.01,4.64,4.54c-0.17,10.82-0.06,21.64-0.06,32.46c0,10.49-0.11,20.98,0.07,31.46c0.06,3.53-0.8,5.04-4.7,5
		c-16.48-0.19-32.96-0.15-49.44-0.02c-3.43,0.03-4.66-1-4.64-4.53C297.87,618.92,297.87,597.45,297.75,575.97z M356.54,678.51
		c-0.2,10.65-0.07,21.31-0.07,31.97c0,10.49-0.13,20.98,0.07,31.47c0.07,3.69-1.09,4.91-4.84,4.87
		c-16.32-0.17-32.64-0.15-48.96-0.01c-3.53,0.03-5.04-0.77-5.01-4.68c0.16-21.31,0.15-42.63,0.01-63.94
		c-0.03-3.69,1.07-4.9,4.82-4.86c16.32,0.17,32.64,0.2,48.96-0.01C355.59,673.26,356.61,674.71,356.54,678.51z M439.03,746.82
		c-16.33-0.17-32.66-0.15-48.99-0.01c-3.56,0.03-5.02-0.85-4.99-4.71c0.15-21.33,0.15-42.66,0-63.99c-0.03-3.79,1.24-4.83,4.9-4.79
		c16.33,0.17,32.66,0.21,48.99-0.02c4.16-0.06,5.05,1.48,4.98,5.22c-0.19,10.49-0.06,20.99-0.06,31.49
		c0,10.66-0.13,21.33,0.07,31.99C444,745.75,442.71,746.86,439.03,746.82z"/>
	<path class="st1" d="M603.49,703.13c-7.74,0.11-14.25,6.85-14.06,14.54c0.19,7.5,6.7,13.87,14.22,13.91
		c7.66,0.05,14.34-6.64,14.29-14.32C617.9,709.54,611.23,703.02,603.49,703.13z"/>
</g>
</svg>
