<?xml version="1.0" encoding="utf-8"?>
<!-- Generator: Adobe Illustrator 26.2.1, SVG Export Plug-In . SVG Version: 6.00 Build 0)  -->
<svg version="1.1" id="Capa_1" xmlns="http://www.w3.org/2000/svg" xmlns:xlink="http://www.w3.org/1999/xlink" x="0px" y="0px"
	 viewBox="0 0 1080 1080" style="enable-background:new 0 0 1080 1080;" xml:space="preserve">
<style type="text/css">
	.st0{enable-background:new    ;}
	.st1{fill:#FFFFFF;}
</style>
<g class="st0">
	<path class="st1" d="M961.79,538.26c0-3,0.14-6.05-0.32-8.98c-4.76-30.27-28.24-50.31-58.97-50.35c-35.5-0.05-71-0.01-106.5-0.01
		c-7.49,0-7.49,0-7.49-7.72c0-18.34,0.1-36.67-0.03-55.01c-0.2-27.73-19.62-47.34-47.31-47.38c-72.34-0.13-144.67-0.13-217.01,0.01
		c-27.61,0.05-46.78,19.45-46.92,47.02c-0.1,18.84-0.02,37.67-0.03,56.51c0,6.57-0.02,6.58-6.71,6.58c-36,0.01-72-0.13-108,0.13
		c-6.4,0.05-13.09,0.79-19.14,2.78c-24.53,8.06-39.31,28.97-39.45,55.39c-0.18,32.65-0.05,65.31-0.05,97.97
		c0,88.35-0.07,176.69,0.13,265.04c0.02,7.55,0.72,15.49,3.11,22.58c8.15,24.23,29.8,39.01,55.84,39.03
		c89.84,0.04,179.67,0.01,269.51,0.01c89.84,0,179.67-0.18,269.51,0.09c34.33,0.1,60.03-26.83,59.96-60.12
		C961.63,780.63,961.8,659.44,961.79,538.26z M502.99,414.82c0.17-12.24,8.47-20.14,20.75-20.17c36.33-0.07,72.65-0.03,108.98-0.03
		c35.66-0.01,71.32-0.02,106.98,0c15.24,0.01,22.95,7.79,22.97,23.14c0.02,18.33-0.14,36.67,0.11,54.99
		c0.06,4.7-1.53,6.14-6.04,5.91c-6.15-0.3-12.34-0.32-18.49,0c-4.51,0.23-5.68-1.54-5.62-5.82c0.21-15-0.05-30,0.18-44.99
		c0.06-4.03-1.26-5.08-5.12-5.07c-63.16,0.1-126.31,0.1-189.47,0c-4.08-0.01-5.51,1.14-5.45,5.35c0.22,14.83-0.06,29.67,0.17,44.49
		c0.07,4.58-1.39,6.27-6.02,6.04c-6.32-0.31-12.66-0.21-18.99-0.03c-3.56,0.1-5.12-1.05-5.1-4.84
		C502.97,454.15,502.73,434.48,502.99,414.82z M558.39,453.59c-0.12-3.6,1-5.06,4.79-5.05c46.44,0.09,92.88,0.08,139.32,0
		c3.63-0.01,4.56,1.52,4.48,4.81c-0.16,6.82-0.21,13.65,0.02,20.47c0.13,3.91-1.27,5.19-5.19,5.16
		c-23.14-0.15-46.27-0.07-69.41-0.07c-22.64,0-45.28-0.1-67.91,0.09c-4.52,0.04-6.31-1.26-6.09-5.94
		C558.7,466.59,558.61,460.08,558.39,453.59z M935.86,903.33c-0.01,19.32-13.67,32.58-33.42,32.58
		c-140.31,0.02-280.63,0.01-420.94,0.01c-39.33,0-78.66,0.02-117.98-0.01c-20.78-0.01-34.02-13.2-34.03-34.08
		c-0.05-77-0.02-153.99-0.01-230.99c0-1.75,0.19-3.49,0.31-5.47c7.23,2.84,13.63,6.26,20.45,7.85c16.37,3.8,32.92,6.8,49.43,9.99
		c27.95,5.4,55.92,10.71,83.89,16.01c24.37,4.62,48.75,9.23,73.14,13.73c7.86,1.45,7.78,1.27,7.92,9.49
		c0.22,12.95-1.04,25.96,3.13,38.66c9.49,28.89,36.39,48.12,66.91,47.44c29.76-0.67,56.43-21.04,63.41-50.29
		c2.78-11.63,2.4-24.08,2.77-36.17c0.16-5.11,1.08-7.5,6.69-8.52c33.59-6.09,67.09-12.59,100.62-19.03
		c34.17-6.56,68.39-12.95,102.46-20c8.34-1.72,16.21-5.71,24.86-8.87c0.11,1.11,0.39,2.64,0.39,4.18
		C935.89,747.67,935.92,825.5,935.86,903.33z M675.24,696.49c-0.01,0-0.01,0-0.02,0c0,14.49,0.11,28.98-0.03,43.47
		c-0.2,21.56-16.02,39.91-36.38,42.44c-21.86,2.71-41.22-10.06-47.04-31.41c-1.16-4.27-1.37-8.89-1.39-13.35
		c-0.12-28.98,0.03-57.97-0.16-86.95c-0.03-4.7,1.52-5.93,6.02-5.89c24.48,0.18,48.97,0.18,73.45,0c4.42-0.03,5.71,1.36,5.64,5.72
		C675.1,665.84,675.24,681.17,675.24,696.49z M935.82,618.67c-0.09,13.79-8.32,22.47-20.27,26.97c-9.88,3.72-20.42,5.92-30.83,7.97
		c-39.7,7.81-79.46,15.29-119.19,22.9c-19.95,3.82-39.9,7.58-59.83,11.52c-3.69,0.73-4.75-0.46-4.72-4
		c0.11-12.67,0.09-25.33,0.03-38c-0.08-16.56-10.3-26.84-26.83-26.88c-27.66-0.07-55.33-0.08-82.99,0
		c-16.36,0.05-26.49,10.23-26.57,26.51c-0.06,12.5-0.12,25,0.04,37.5c0.05,4.1-1.18,5.12-5.31,4.31
		c-34.81-6.78-69.66-13.39-104.51-19.99c-30.1-5.7-60.23-11.23-90.31-17.04c-5.02-0.97-10.02-2.57-14.71-4.63
		c-13.27-5.81-20.53-15.68-20.4-30.72c0.22-26.16-0.11-52.33,0.13-78.5c0.18-18.94,13.83-31.98,33.55-32.02
		c38.99-0.06,77.98,0.27,116.97,0.28c35.66,0,71.31-0.24,106.97-0.34c15.33-0.04,30.66-0.01,45.99-0.01c0,0.12,0,0.25,0,0.37
		c49.49,0,98.97,0.05,148.46-0.01c39.82-0.05,79.64-0.15,119.47-0.41c12.99-0.09,23.78,4.06,30.27,15.64
		c2.58,4.61,4.36,10.32,4.44,15.56C936.1,563.33,936,591,935.82,618.67z"/>
	<path class="st1" d="M261.55,833.72c-33.83-0.03-67.66,0-101.5-0.03c-10.83-0.01-15.99-5.17-16.06-15.84c-0.01-1.67,0-3.33,0-5
		c0-174.51,0-349.02,0-523.54c0-43.34-0.02-86.67,0.02-130.01c0.01-9.87,5.31-15.32,14.99-15.32c118.16-0.02,236.33,0,354.49-0.1
		c4.23,0,5.34,1.38,5.31,5.45c-0.16,24.17-0.13,48.34-0.06,72.5c0.09,31.16,21.67,52.68,52.92,52.78c21,0.07,42,0.16,63-0.09
		c5-0.06,6.67,1.3,6.56,6.44c-0.31,15.16-0.08,30.33-0.12,45.5c-0.01,5.75,1.75,10.58,7.08,13.36c8.69,4.54,18.57-1.45,18.66-11.53
		c0.19-21.17-0.03-42.34,0.11-63.5c0.08-11.28-3.84-20.76-11.56-28.88c-9.07-9.54-18-19.22-26.99-28.84
		c-23.56-25.2-47.11-50.41-70.7-75.58c-7.18-7.66-15.82-13.32-26.46-13.34c-124.5-0.19-248.99-0.12-373.49-0.08
		c-2.64,0-5.32,0.27-7.91,0.8c-18.44,3.8-31.98,20.64-31.91,42.04c0.34,109.34,0.16,218.68,0.16,328.02
		c0,109.84-0.01,219.68,0.01,329.52c0.01,23.75,17.22,40.92,41.04,40.98c19,0.05,38,0.01,57,0.01c15.33,0,30.67,0.07,46-0.03
		c9.16-0.06,14.77-5.97,13.99-14.41C275.47,838.05,270,833.72,261.55,833.72z M544.56,170.95c0-1.56,0.22-3.11,0.47-6.28
		c26.09,28.29,51.13,55.45,77.17,83.69c-3.15,0.29-4.85,0.57-6.54,0.57c-14.65,0.03-29.3,0.06-43.95,0
		c-16.91-0.07-27.05-10.15-27.13-27.04C544.49,204.92,544.54,187.94,544.56,170.95z"/>
	<path class="st1" d="M705.45,198.79c6.54-0.38,10.56-4.74,12.25-13.01c2.6-12.73,5.37-25.42,7.92-38.16
		c0.51-2.57,1.53-3.76,4.25-3.7c6,0.12,12,0.15,18-0.01c3.23-0.09,4.28,1.55,4.86,4.4c2.63,12.89,5.54,25.73,8.07,38.64
		c1.26,6.44,4.6,10.39,11.06,11.94c15.5,3.7,30.16,9.55,43.64,18.1c5.95,3.78,11.41,3.48,17.19-0.4
		c10.93-7.34,22.06-14.36,33.01-21.68c2.52-1.68,4.27-1.85,6.45,0.48c3.87,4.14,7.89,8.14,12.04,12c2.4,2.23,2.57,4.06,0.7,6.84
		c-7.44,11.06-14.58,22.32-21.95,33.43c-3.49,5.26-3.94,10.47-0.53,15.9c8.75,13.96,14.88,29.01,18.68,45.02
		c1.38,5.82,5.18,9.07,10.95,10.27c13.21,2.74,26.38,5.62,39.61,8.25c3.26,0.65,4.47,2.17,4.36,5.42c-0.19,5.49-0.24,11-0.06,16.5
		c0.11,3.23-0.92,4.73-4.26,5.38c-12.42,2.41-24.76,5.26-37.19,7.66c-7.22,1.39-12.06,4.62-13.81,12.32
		c-3.49,15.38-9.75,29.7-17.93,43.2c-1.26,2.08-2.28,4.53-2.6,6.91c-0.74,5.5,3.02,11.17,8.13,13.01c5.9,2.12,12,0.14,15.65-5.51
		c8.09-12.53,14.31-25.97,18.46-40.29c1.12-3.85,3.02-5.83,6.98-6.6c13.56-2.66,27.07-5.59,40.6-8.41
		c7.81-1.63,11.79-6.36,11.82-14.29c0.04-14,0.02-28,0.01-42.01c-0.01-9.28-3.53-13.75-12.6-15.72c-13.34-2.9-26.68-5.84-40.09-8.39
		c-3.69-0.7-5.26-2.43-6.53-5.73c-3.88-10.08-7.91-20.12-12.38-29.95c-1.53-3.36-1.47-5.62,0.55-8.63
		c7.81-11.62,15.43-23.36,22.97-35.15c4.2-6.56,3.5-12.52-1.97-18.08c-9.71-9.86-19.46-19.67-29.27-29.43
		c-7.38-7.33-12.65-7.76-21.25-2.12c-11.28,7.4-22.52,14.88-33.98,22c-1.85,1.15-5.1,1.4-7.14,0.62
		c-10.55-4.03-20.89-8.61-31.39-12.8c-2.92-1.16-4.44-2.68-5.07-5.96c-2.65-13.74-5.57-27.42-8.57-41.08
		c-1.81-8.26-6.5-11.91-14.74-11.94c-7-0.03-14-0.01-21,0c-7.33,0-14.67-0.03-22,0.01c-7.63,0.04-12.49,3.98-14.1,11.44
		c-2.05,9.44-4.09,18.88-6.06,28.34c-1.84,8.8-4,17.56-5.25,26.45C690.66,193.05,696.89,199.29,705.45,198.79z"/>
	<path class="st1" d="M812.85,382.28c0.4,5.68,5.04,9.87,10.37,10.64c6.15,0.89,11.33-1.86,14.07-8.01
		c6.27-14.02,9.54-28.72,9.46-44.18c-1-38.1-16.84-68.34-48.45-89.85c-17.52-11.93-37.17-17.71-58.41-17.68
		c-8.49,0.01-14.12,5.86-13.56,13.79c0.48,6.83,5.48,11.42,13.71,11.8c10.76,0.5,21.15,2.36,31.1,6.58
		c41.15,17.47,60.69,65.18,43.84,106.87C813.7,375.39,812.62,378.99,812.85,382.28z"/>
	<path class="st1" d="M449.89,236.05c-58.81-0.01-117.62-0.01-176.42,0.01c-1.99,0-4.02,0.01-5.97,0.35
		c-7.82,1.36-12.27,9.1-9.66,16.61c2.07,5.95,6.5,8.63,14.72,8.64c29.65,0.03,59.31,0.01,88.96,0.01c29.49,0,58.97,0.01,88.46-0.01
		c10.72-0.01,16.73-4.67,16.71-12.87C466.66,240.61,460.69,236.05,449.89,236.05z"/>
	<path class="st1" d="M361.91,295.98c-3.33,0-6.66,0-10,0c-27.16,0-54.32-0.03-81.48,0.04c-7.83,0.02-13.29,5.24-13.42,12.49
		c-0.13,7.06,5.37,12.6,13.02,13.08c1.66,0.1,3.33,0.04,5,0.04c52.32,0,104.64,0,156.96,0c7,0,14,0.07,20.99-0.04
		c5.82-0.08,10.36-2.51,12.64-8.09c3.63-8.9-2.57-17.47-12.75-17.49C422.56,295.94,392.23,295.98,361.91,295.98z"/>
	<path class="st1" d="M365.06,381.41c9.02-0.03,14.73-5.01,14.82-12.72c0.09-7.94-5.65-13.03-14.95-13.12
		c-7.67-0.07-15.33-0.02-23-0.02c-23.33,0-46.67,0.03-70-0.01c-5.75-0.01-10.58,1.73-13.39,7.03c-4.66,8.77,1.55,18.65,12.03,18.79
		c15.83,0.21,31.67,0.05,47.5,0.06C333.73,381.42,349.39,381.46,365.06,381.41z"/>
	<path class="st1" d="M219.86,307.22c-0.65-6.3-5.85-10.98-12.6-11.19c-3.82-0.12-7.67-0.22-11.47,0.07
		c-8.36,0.65-13.67,9.44-10.49,17.18s9.74,8.75,16.97,8.51c2.48-0.2,5.02-0.13,7.43-0.66C216.44,319.66,220.56,313.87,219.86,307.22
		z"/>
	<path class="st1" d="M195.52,261.34c4.6,0.42,9.33,0.41,13.91-0.12c6.07-0.71,10.37-6.05,10.49-12.09
		c0.12-6.28-4.15-11.61-10.41-12.7c-2.27-0.4-4.63-0.35-6.94-0.51c0,0.11-0.01,0.22-0.01,0.33c-2.32,0-4.68-0.24-6.97,0.05
		c-6.53,0.82-11.3,6.2-11.32,12.51C184.25,255.09,189.04,260.75,195.52,261.34z"/>
	<path class="st1" d="M195.54,355.86c-5.79,0.69-10.05,5.04-11.1,10.67c-0.91,4.86,1.74,10.95,6.46,12.96
		c3.41,1.45,7.3,1.76,10.98,2.59c0.05-0.22,0.1-0.44,0.14-0.66c1.5,0,3,0.05,4.49-0.01c7.8-0.33,13.28-5.52,13.39-12.65
		c0.11-7.2-5.15-12.68-12.9-13.1C203.19,355.45,199.32,355.41,195.54,355.86z"/>
	<path class="st1" d="M632.6,725.96c-7.13,0.04-12.66,5.56-12.67,12.62c-0.01,7.28,5.73,12.84,13.11,12.67
		c7.15-0.16,12.44-5.66,12.35-12.85C645.29,731.29,639.77,725.92,632.6,725.96z"/>
</g>
</svg>
