<?xml version="1.0" encoding="utf-8"?>
<!-- Generator: Adobe Illustrator 26.2.1, SVG Export Plug-In . SVG Version: 6.00 Build 0)  -->
<svg version="1.1" id="Capa_1" xmlns="http://www.w3.org/2000/svg" xmlns:xlink="http://www.w3.org/1999/xlink" x="0px" y="0px"
	 viewBox="0 0 1080 1080" style="enable-background:new 0 0 1080 1080;" xml:space="preserve">
<style type="text/css">
	.st0{enable-background:new    ;}
	.st1{fill:#FFFFFF;}
</style>
<g class="st0">
	<path class="st1" d="M964.27,717.3c-17.8-48.14-49.41-84.82-94.58-109.47c-4.23-2.31-5.7-4.91-5.68-9.73
		c0.17-64.68,0.11-129.36,0.11-194.04c0-54.34-0.01-108.69,0.01-163.03c0-12.32-2.75-23.78-10.27-33.79
		c-10.73-14.28-25.44-20.44-42.91-20.64c-14.66-0.16-29.33-0.17-44,0.04c-4.19,0.06-5.4-1.32-5.34-5.43
		c0.09-6.65-0.02-13.36-0.89-19.94c-2.86-21.71-20.11-38.54-43.16-42.58c-18.94-3.32-41.17,7.97-50.99,25.51
		c-6.4,11.43-7.26,23.77-6.69,36.35c0.22,4.9-1.38,6.14-6.15,6.12c-37-0.19-74-0.1-111-0.1c-6.67,0-13.34-0.22-20,0.08
		c-4.26,0.19-5.59-1.42-5.25-5.49c0.3-3.48,0.11-7,0.04-10.5c-0.49-24.32-13.88-42.71-36.45-50.06
		c-25.35-8.26-54.99,6.72-62.19,32.43c-2.6,9.28-2.44,19.35-3.2,29.09c-0.24,3.03-0.76,4.5-4.2,4.49c-44.67-0.08-89.33-0.08-134,0
		c-3.33,0.01-4.22-1.23-4.27-4.4c-0.1-7.32,0.02-14.72-1.04-21.93c-3.14-21.26-20.39-37.66-43-41.59
		c-18.97-3.3-41.29,8.05-50.98,25.53c-6.34,11.44-7.32,23.76-6.74,36.35c0.23,4.95-1.45,6.69-6.2,6.04c-1.47-0.2-3-0.01-4.5-0.03
		c-9.58-0.17-19.05,0.62-27.79,4.88c-20.19,9.84-29.79,26.48-29.81,48.6c-0.11,92.02-0.04,184.03-0.04,276.05
		c0,91.02,0,182.03,0.01,273.05c0,2.67-0.09,5.35,0.16,8c1.38,14.56,7.15,26.88,18.59,36.32c10.56,8.71,22.87,11.79,36.26,11.78
		c137.17-0.02,274.33,0.01,411.5-0.12c4.83,0,6.68,1.59,8.5,6.05c5.66,13.83,10.85,28.12,18.54,40.83
		c30.79,50.92,75.5,83.2,133.88,95.45c56.14,11.77,108.6,1.39,155.89-30.72c48.68-33.05,77.86-79.26,87.58-137.62
		C979.87,784.22,976.44,750.21,964.27,717.3z M694.41,165.57c0.72-13.12,18.1-17.92,27.9-8.94c4.19,3.84,5.83,8.79,5.76,14.39
		c0,0.33,0,0.67,0,1c0,10.66,0,21.32,0,31.99c-0.01,0-0.02,0-0.03,0c0,11,0.17,21.99-0.05,32.98c-0.17,8.75-5.43,15.24-13.33,17.2
		c-7.28,1.82-14.7-1.37-18.73-8.19c-0.83-1.41-1.8-3.05-1.81-4.59C694,216.13,693.03,190.79,694.41,165.57z M449.28,169.93
		c0.1-10.29,7.66-17.83,17.1-17.95c9.6-0.13,17.26,7.61,17.46,18.11c0.22,11.16,0.05,22.32,0.05,33.49
		c-0.01,11.16,0.12,22.33-0.06,33.49c-0.12,7.26-3.53,12.84-10.13,16c-6.28,3.01-12.36,2.07-17.82-2.2
		c-4.49-3.51-6.61-8.36-6.64-13.96C449.17,214.58,449.06,192.26,449.28,169.93z M205.14,169.51c0.11-9.96,7.72-17.35,17-17.52
		c9.41-0.18,17.18,7.3,17.48,17.53c0.33,11.15,0.07,22.32,0.07,33.49c0.01,0,0.02,0,0.02,0c0,11.16,0.08,22.33-0.03,33.49
		c-0.07,7.44-3.29,13.26-10.08,16.55c-6.27,3.04-12.36,2.11-17.83-2.12c-4.35-3.36-6.62-8.02-6.65-13.43
		C205,214.82,204.89,192.16,205.14,169.51z M136.77,241.32c0.01-14.45,6.67-21.1,21.08-21.15c13.5-0.05,13.45-0.05,13.54,13.57
		c0.15,21.71,8.52,38.69,28.3,49.14c29.05,15.34,66.86-3.13,72.3-35.63c1.2-7.18,1.15-14.6,1.22-21.91c0.04-3.76,0.88-5.27,5-5.25
		c44.17,0.13,88.33,0.14,132.5,0c4.16-0.01,4.75,1.59,5.01,5.27c0.67,9.58,0.68,19.46,3.23,28.59
		c7.07,25.32,36.99,40.41,61.94,32.17c22.98-7.58,36.24-25.8,36.64-50.4c0.07-4,0.1-8-0.01-12c-0.07-2.59,1.06-3.64,3.57-3.55
		c1.83,0.07,3.67,0,5.5,0c42.17,0,84.33,0,126.5,0c6.69,0,6.79,0.01,6.67,6.89c-0.21,12.27,0.58,24.23,6.76,35.36
		c10.33,18.62,31.48,28.66,53.41,24.94c20.46-3.47,37.54-20.42,40.57-40.92c1.06-7.21,1.02-14.6,1.14-21.92
		c0.05-3.23,1.05-4.41,4.32-4.39c15.5,0.12,31-0.13,46.5,0.14c10.74,0.19,17.88,7.38,17.94,18.12c0.18,28.67,0.04,57.34,0.14,86.01
		c0.01,3.18-1.27,4.15-4.16,3.91c-1.49-0.12-3-0.02-4.5-0.02c-112.83,0-225.66,0-338.49,0c-113.16,0-226.33,0-339.49,0
		c-7.13,0-7.13-0.01-7.13-6.96C136.76,294.66,136.75,267.99,136.77,241.32z M588.28,698.41c-16.14,33.26-22.87,68.35-19.61,105.27
		c0.7,7.89,0.6,7.91-7.4,7.91c-134.17,0-268.33,0.01-402.5-0.06c-3.77,0-7.81-0.23-11.26-1.56c-6.4-2.46-9.86-7.7-10.58-14.57
		c-0.23-2.15-0.15-4.33-0.15-6.49c-0.01-140.03-0.01-280.05-0.01-420.08c0-6.88,0-6.89,6.7-6.89c226.83,0,453.66,0,680.5,0
		c6.53,0,6.52,0.01,6.52,6.47c0,71.85,0,143.69-0.01,215.54c0,2.12-0.18,4.23-0.29,6.79c-8.64-1.76-16.42-3.48-24.25-4.91
		c-21.86-3.97-43.71-3.6-65.64-0.21c-27.39,4.23-52.73,13.73-76.17,28.43C630.79,634.94,605.44,663.05,588.28,698.41z M771.9,958.44
		c-93.87-0.24-170.82-77.39-170.7-171.15c0.12-94.02,76.85-170.74,170.9-170.87c94.22-0.13,171.21,76.88,171.07,171.1
		C943.02,881.89,866.07,958.68,771.9,958.44z"/>
	<path class="st1" d="M360.92,743.32c-45.15-0.03-90.3-0.01-135.44,0c-1.33,0-2.68,0-3.99,0.19c-11.84,1.73-18.25,11.64-14.54,22.42
		c2.33,6.79,8.97,10.99,17.89,11.01c22.82,0.06,45.65,0.02,68.47,0.02c8.5,0,16.99,0,25.49,0c14.49,0,28.99,0.14,43.48-0.05
		c13.24-0.18,21.19-10.6,17.35-22.32C377.29,747.47,370.53,743.32,360.92,743.32z"/>
	<path class="st1" d="M224.82,571.98c17.14,0.07,34.29,0.02,51.43,0.02c17.31,0,34.62,0.15,51.93-0.05
		c13.23-0.15,21.16-10.61,17.29-22.31c-2.31-6.99-9.01-11.25-18.19-11.26c-34.12-0.05-68.24-0.02-102.36-0.01
		c-1.33,0-2.67,0.06-3.97,0.29c-11.61,2.07-17.65,11.73-14,22.34C209.28,567.78,215.89,571.94,224.82,571.98z"/>
	<path class="st1" d="M536.87,538.37c-33.79-0.03-67.57-0.02-101.36-0.01c-1.33,0-2.67,0-3.98,0.2
		c-11.87,1.78-18.24,11.58-14.58,22.38c2.31,6.8,8.92,11.01,17.83,11.04c17.14,0.07,34.28,0.02,51.43,0.02
		c17.31,0,34.62,0.14,51.93-0.05c13.46-0.15,21.47-10.92,17.23-22.72C552.91,542.39,546.19,538.37,536.87,538.37z"/>
	<path class="st1" d="M225.14,469.55c33.95,0.06,67.9,0.06,101.85-0.03c2.78-0.01,5.65-0.52,8.33-1.31
		c7.81-2.3,12.63-11.04,10.68-18.93c-2.14-8.65-8.44-13.28-18.55-13.33c-17.14-0.08-34.28-0.02-51.42-0.02
		c-17.31,0-34.62-0.15-51.92,0.05c-13.02,0.15-20.87,10.29-17.34,21.89C208.98,465.16,215.65,469.53,225.14,469.55z"/>
	<path class="st1" d="M435.09,469.55c17.14,0.07,34.28,0.02,51.42,0.02c16.48,0,32.95,0.07,49.43-0.06c3.12-0.02,6.33-0.45,9.33-1.3
		c7.85-2.23,12.7-10.99,10.78-18.87c-2.13-8.69-8.4-13.38-18.49-13.4c-34.28-0.06-68.57-0.05-102.85,0.03
		c-2.46,0.01-4.99,0.45-7.35,1.14c-9.95,2.9-14.54,14.94-9.21,23.86C421.98,467.43,428.07,469.52,435.09,469.55z"/>
	<path class="st1" d="M327.07,640.88c-33.95-0.05-67.9-0.03-101.84,0.02c-2.14,0-4.33,0.27-6.41,0.78
		c-10.21,2.48-15.36,12.14-11.82,21.98c2.42,6.72,8.98,10.74,18.02,10.78c16.97,0.07,33.95,0.02,50.92,0.02
		c16.81,0,33.62,0.07,50.42-0.06c3.12-0.02,6.34-0.45,9.32-1.36c7.52-2.31,12.21-11.08,10.35-18.7
		C343.87,645.47,337.56,640.9,327.07,640.88z"/>
	<path class="st1" d="M537.39,640.89c-34.17-0.06-68.33-0.05-102.5,0.03c-2.62,0.01-5.33,0.49-7.85,1.25
		c-7.66,2.29-12.49,10.75-10.78,18.51c1.95,8.89,8.38,13.7,18.75,13.75c17,0.08,34,0.02,51,0.02c16.67,0,33.33,0.07,50-0.05
		c3.13-0.02,6.35-0.4,9.35-1.27c7.82-2.25,12.62-11.06,10.66-18.96C553.88,645.54,547.56,640.91,537.39,640.89z"/>
	<path class="st1" d="M645,469.55c15.99,0.06,31.98,0.02,47.97,0.02c15.99,0,31.98,0.07,47.97-0.06c3.12-0.02,6.34-0.45,9.33-1.32
		c7.81-2.27,12.61-11.06,10.66-18.96c-2.13-8.61-8.48-13.27-18.6-13.29c-32.48-0.06-64.95-0.04-97.43,0.02
		c-2.14,0-4.32,0.33-6.4,0.86c-10.19,2.58-15.5,13.31-11.09,22.73C630.84,466.91,637.31,469.52,645,469.55z"/>
	<path class="st1" d="M432.2,743.45c-8.85,0.17-16.57,8.11-16.41,16.88c0.17,8.9,8.09,16.67,16.81,16.48
		c8.87-0.2,16.59-8.13,16.42-16.88C448.85,751.05,440.93,743.29,432.2,743.45z"/>
	<path class="st1" d="M871.61,770.63c-25.66-0.05-51.33-0.11-76.99,0.07c-4.28,0.03-5.79-1.05-5.72-5.56c0.25-18,0.1-36,0.1-54
		c0-8.33,0.21-16.68-0.07-25c-0.44-12.87-10.98-20.53-22.47-16.61c-7.05,2.41-11.09,9.18-11.1,18.86c-0.03,31.84-0.03,63.67,0,95.51
		c0.01,13.51,6.8,20.31,20.28,20.35c15.83,0.05,31.66,0.01,47.49,0.01c16.5,0,33,0.13,49.49-0.04
		c13.55-0.14,21.57-10.73,17.43-22.62C887.67,774.72,880.97,770.65,871.61,770.63z"/>
</g>
</svg>
