<?xml version="1.0" encoding="utf-8"?>
<!-- Generator: Adobe Illustrator 26.2.1, SVG Export Plug-In . SVG Version: 6.00 Build 0)  -->
<svg version="1.1" id="Capa_1" xmlns="http://www.w3.org/2000/svg" xmlns:xlink="http://www.w3.org/1999/xlink" x="0px" y="0px"
	 viewBox="0 0 1080 1080" style="enable-background:new 0 0 1080 1080;" xml:space="preserve">
<style type="text/css">
	.st0{enable-background:new    ;}
	.st1{fill:#450979;}
</style>
<g class="st0">
	<path class="st1" d="M952.31,248.53c-8.02-19.69-22.97-31.23-43.26-36.54c-22.06-5.78-44.07-11.77-66.1-17.69
		c-43.41-11.66-86.81-23.35-130.23-35c-41.81-11.22-83.61-22.44-125.44-33.57c-9.96-2.65-19.9-6.23-30.04-7.16
		c-28.3-2.57-53.65,14.08-61.64,41.34c-11,37.51-20.69,75.41-30.66,113.22c-1.18,4.48-3.01,5.77-7.45,5.76
		c-56-0.13-112-0.09-168-0.09c-44.67,0-89.34,0.02-134-0.02c-7.69-0.01-14.89,1.34-21.15,6.16c-9.02,6.94-11.62,16.39-11.6,27.33
		c0.11,98.02,0.07,196.04,0.06,294.06c0,97.85-0.05,195.71,0.12,293.56c0.01,5.85,0.65,12.23,3.03,17.45
		c5.55,12.22,16.16,16.75,29.32,16.74c112-0.08,224-0.06,336.01,0c2.95,0,5.99,0.34,8.85,1.08c13.38,3.45,26.71,7.1,40.06,10.68
		c43.74,11.71,87.47,23.45,131.23,35.12c13.83,3.69,27.53,8.19,41.59,10.59c25.08,4.28,53.98-13.29,61.81-37.58
		c6.52-20.25,11.68-40.95,17.23-61.51c10.01-37.11,19.84-74.27,29.79-111.4c9.95-37.13,19.98-74.24,29.92-111.37
		c11.06-41.31,22.02-82.65,33.1-123.95c12.24-45.65,24.57-91.26,36.83-136.91c10.7-39.85,21.4-79.71,32-119.59
		C957.29,275.57,957.75,261.89,952.31,248.53z M158.11,905.14c-5.25,0.01-6.32-1.66-6.32-6.54c0.13-97.5,0.1-195.01,0.1-292.51
		c0-97,0-194.01,0-291.01c0-7.15,0.01-7.16,7.02-7.16c145.31,0,290.63,0,435.94,0c17.25,0,28.4,7.07,32.93,21.35
		c1.18,3.73,1.43,7.88,1.44,11.83c0.07,177.01,0.08,354.02,0.03,531.03c0,20.55-12.52,32.88-33.2,32.88
		C450.06,905.03,304.08,904.99,158.11,905.14z M925.42,281.89c-11.73,43.54-23.49,87.06-35.16,130.62
		c-11.67,43.55-23.2,87.15-34.87,130.7c-12.23,45.64-24.58,91.25-36.82,136.9c-9.39,35.04-18.63,70.11-28.02,105.15
		c-11.67,43.55-23.42,87.09-35.16,130.62c-2.38,8.83-4.21,17.89-7.5,26.37c-6.4,16.51-20.79,23.41-37.91,18.87
		c-31.86-8.44-63.69-17.01-95.52-25.56c-1.4-0.37-2.7-1.07-4.57-1.83c7.06-3,13.65-4.98,19.4-8.38
		c20.55-12.15,29.36-31.04,29.38-54.35c0.08-75.18,0.03-150.35,0.03-225.53c0-2.11,0-4.22,0-7.2c5.4,1.32,9.98,2.45,15.18,3.73
		c2.1-7.82,4.16-15.48,6.22-23.14c2.63-9.8,5.2-19.62,7.94-29.39c0.9-3.19,0.41-4.77-3.24-5.54c-6.51-1.37-12.86-3.46-19.33-5.02
		c-1.83-0.44-3.85-0.07-6.39-0.07c0-76.29,0-153.5,0-231.73c10.14,2.8,19.74,5.27,29.18,8.24c1.32,0.41,2.2,3.12,2.76,4.93
		c7.11,23.05,14.14,46.13,21.17,69.2c3.64,11.93,7.36,23.84,10.84,35.83c1.07,3.7,2.74,5.9,6.83,6.68
		c6.12,1.16,12.1,3.07,18.92,4.87c-0.72-35.76-1.42-70.46-2.13-106.09c7.65,1.97,14.35,3.67,21.05,5.42
		c5.96,1.56,12.03,2.82,17.79,4.93c2.83,1.04,5.85,3.19,7.44,5.69c4.91,7.71,9.4,15.72,13.6,23.85c2.1,4.07,4.91,6.41,9.31,7.22
		c3.05,0.56,6.05,1.42,9.79,2.31c-0.31-4.79-0.6-8.88-0.82-12.97c-0.26-4.83,0.2-9.8-0.8-14.46c-2.87-13.39,0.76-24.58,9.26-35.05
		c5.6-6.9,9.97-14.8,15.3-22.87c-8.41-2.25-15.44-6.4-23.61-0.09c-6.8,5.25-14.71,9.11-22.33,13.23c-1.94,1.05-4.78,1.48-6.91,0.97
		c-11.81-2.86-23.53-6.08-35.27-9.23c-1.4-0.38-2.73-1.04-4.93-1.9c18.29-30.2,36.33-59.97,54.83-90.51
		c-8.14-2.21-15.41-4.41-22.8-6c-1.36-0.29-3.46,1.61-4.85,2.89c-26.75,24.83-53.47,49.69-80.09,74.66
		c-3.05,2.86-5.6,4.09-10.03,2.73c-12.25-3.76-24.75-6.69-37.05-10.26c-2.3-0.67-4.84-2.38-6.14-4.35
		c-12.35-18.8-29.78-28.09-52.11-28.17c-32.16-0.11-64.33-0.03-96.49-0.05c-2.11,0-4.21-0.19-7.04-0.33
		c2.36-9.09,4.49-17.57,6.75-26.01c7.2-26.84,14.41-53.67,21.69-80.49c5.04-18.55,21.1-27.86,39.63-22.89
		c62.39,16.71,124.75,33.53,187.14,50.24c49.85,13.36,99.7,26.7,149.59,39.89c11.22,2.97,20.93,7.46,26.11,18.79
		C928.29,265.95,927.59,273.84,925.42,281.89z"/>
	<path class="st1" d="M390.14,368.45c-100.76,0.42-178.82,81.81-177.93,179.7c0.91,99.88,81.09,176.94,179.09,177.25
		c99.39-1.43,178.45-81.42,177.73-179.15C568.3,447.14,488.44,368.04,390.14,368.45z M354.33,474.36
		c4.99-20.07,11.68-39.5,21.22-57.88c2.75-5.3,5.74-10.5,8.84-15.61c2.88-4.75,9.58-4.57,12.58,0.25
		c13.12,21.04,22.28,43.75,28.4,67.74c0.85,3.34,1.67,6.69,2.73,10.92c-2.54,0.14-4.16,0.31-5.78,0.31
		c-21.3,0.02-42.59,0.02-63.89,0.01C352.88,480.09,352.95,479.9,354.33,474.36z M347.97,405.43c-2.8,6.46-5.95,12.45-8.03,18.8
		c-5.42,16.56-10.51,33.24-15.4,49.97c-1.26,4.31-2.82,6.16-7.74,6.05c-17.31-0.37-34.64-0.14-51.96-0.14c-1.8,0-3.6,0-5.88,0
		C265.66,453.18,319.95,407.77,347.97,405.43z M245.65,580.09c-4.13-16.69-5.04-33.53-3.04-50.53c0.7-5.93,2.06-11.8,3.57-17.58
		c0.31-1.21,2.58-2.7,3.95-2.72c21.48-0.17,42.97-0.1,64.45-0.14c2.97-0.01,3.7,1.5,3.49,4.11c-0.45,5.64-1.21,11.3-1.15,16.94
		c0.18,16.3,0.53,32.61,1.2,48.9c0.18,4.32-1.09,5.45-5.2,5.36c-10.32-0.23-20.65-0.08-30.98-0.08c-10.33,0-20.65-0.08-30.98,0.04
		C247.8,584.43,246.48,583.43,245.65,580.09z M258.97,613.79c2.06-0.14,3.66-0.35,5.26-0.35c17.99-0.02,35.97,0.08,53.96-0.09
		c3.51-0.03,5.23,1.22,5.91,4.5c4.93,23.54,12.45,46.21,22.91,67.88c0.27,0.57,0.27,1.27,0.4,1.92
		C325.64,690.44,266.35,641.28,258.97,613.79z M418.61,646.19c-6.41,15.48-13.86,30.54-21.28,45.57c-3.17,6.4-9.76,6.13-13.55,0.01
		c-14.26-23.01-23.29-48.12-29.94-74.2c-0.67-2.62-0.24-4.17,2.94-4.17c22.66,0.05,45.32,0.03,67.98,0.07
		c0.79,0,1.57,0.36,3.66,0.87C425.09,625.35,422.76,636.15,418.61,646.19z M427.59,584.45c-12.32-0.27-24.64-0.09-36.97-0.09
		c-12.66,0-25.31-0.09-37.97,0.07c-3.33,0.04-4.67-0.97-5.05-4.39c-2.47-21.94-2.37-43.86-0.14-65.81c0.41-4.07,2.08-5.19,6.01-5.16
		c24.81,0.15,49.63,0.16,74.44,0c4.34-0.03,5.65,1.56,6.04,5.74c2.01,21.29,2.04,42.54,0.01,63.83
		C433.54,583.16,432.07,584.54,427.59,584.45z M433.25,688.29c3.13-7.28,6.5-13.76,8.73-20.62c5.39-16.57,10.33-33.28,15.22-50
		c0.84-2.87,1.93-4.28,5-4.27c18.97,0.06,37.94,0.02,56.91,0.05c0.93,0,1.86,0.32,2.79,0.49
		C517.79,638.35,462.58,684.96,433.25,688.29z M535.27,512.76c4.89,19.67,6.17,39.45,1.79,59.35c-2.7,12.29-2.92,12.24-15.71,12.24
		c-7.49,0-14.98,0-22.48,0c-10.49,0-20.98-0.13-31.46,0.07c-3.83,0.07-4.94-1.23-4.52-4.97c2.4-21.75,2.37-43.53,0.04-65.29
		c-0.39-3.62,0.67-5.11,4.54-5.09c20.98,0.13,41.95,0.1,62.93,0.01C533.18,509.08,534.57,509.94,535.27,512.76z M517.43,480.09
		c-17.81,0.02-35.61-0.09-53.42,0.09c-4.12,0.04-6.1-0.91-7.06-5.4c-4.9-22.98-12.14-45.22-22.61-66.33
		c-0.41-0.82-0.49-1.81-1.05-3.97c40.53,13.21,69.84,37.85,89.93,75.34C520.57,479.94,519,480.09,517.43,480.09z"/>
	<path class="st1" d="M532.43,815.41c-94.44,0-188.87,0-283.31,0c-0.67,0-1.34,0.07-2-0.01c-3.83-0.48-5.45,1.01-5.27,5.03
		c0.25,5.65,0.06,11.33,0.06,16.99c0,7.35,0,7.35,7.34,7.35c94.44,0,188.87,0,283.31,0c1.33,0,2.8,0.33,3.96-0.13
		c1.1-0.44,2.65-1.69,2.67-2.62c0.2-8.63,0.12-17.26,0.12-26.61C536.38,815.41,534.41,815.41,532.43,815.41z"/>
	<path class="st1" d="M741.64,722.79c-8.09-2.46-16.3-4.48-25.03-6.78c-0.45,1.44-0.73,2.2-0.94,2.98
		c-8.98,33.4-17.97,66.79-26.92,100.2c-8.39,31.32-16.76,62.64-25.02,94c-0.32,1.21,0.25,3.74,0.92,3.94
		c8.53,2.56,17.16,4.8,26.19,7.24c3.74-13.87,7.29-27,10.81-40.14c9.38-35.01,18.74-70.03,28.12-105.04
		c4.65-17.34,9.41-34.66,13.88-52.05C743.97,725.88,742.7,723.11,741.64,722.79z"/>
	<path class="st1" d="M771.76,607.31c-6.93-1.78-13.82-3.7-20.7-5.65c-2.95-0.84-4.13,0.23-4.84,3.15
		c-1.89,7.75-4.15,15.41-6.22,23.11c-2.41,8.99-4.78,18-7.42,27.98c0.58,0.63,1.38,2.29,2.55,2.63c7.18,2.1,14.47,3.83,21.68,5.83
		c2.76,0.76,3.85-0.18,4.55-2.86c4.31-16.4,8.72-32.77,13.23-49.12C775.39,609.47,774.66,608.05,771.76,607.31z"/>
	<path class="st1" d="M821.22,543.68c-8.11-2.31-16.31-4.33-24.93-6.54c-2.4,8.74-4.8,17.01-6.81,25.38
		c-0.23,0.94,1.55,3.15,2.78,3.53c6.83,2.1,13.75,3.97,20.72,5.54c1.23,0.28,3.85-0.9,4.15-1.91c2.23-7.48,4.13-15.07,5.87-22.68
		C823.21,546.03,822.09,543.93,821.22,543.68z"/>
	<path class="st1" d="M709.94,516.63c0.19-0.84-1.9-2.86-3.26-3.28c-6.66-2.03-13.39-3.88-20.18-5.36
		c-1.24-0.27-3.88,1.15-4.23,2.29c-2.21,7.12-4.11,14.34-5.69,21.63c-0.25,1.16,1.38,3.67,2.61,4.04c7.6,2.32,15.33,4.22,24.05,6.53
		C705.61,533.54,707.98,525.13,709.94,516.63z"/>
	<path class="st1" d="M735.62,550.95c6.81,2.15,13.73,3.96,20.7,5.51c1.24,0.28,3.84-0.86,4.14-1.86
		c2.28-7.46,4.15-15.04,6.44-23.68c-0.89-0.71-1.95-2.17-3.33-2.57c-6.7-1.96-13.5-3.55-20.21-5.46c-2.67-0.76-4.06-0.04-4.75,2.6
		c-1.84,7.07-3.93,14.08-5.5,21.22C732.85,547.94,734.4,550.57,735.62,550.95z"/>
</g>
</svg>
